<svg xmlns="http://www.w3.org/2000/svg" xmlns:xlink="http://www.w3.org/1999/xlink" width="760" zoomAndPan="magnify" viewBox="0 0 570 203.249992" height="271" preserveAspectRatio="xMidYMid meet" version="1.2"><defs><clipPath id="a4ca973c2d"><path d="M 215.019531 140.535156 L 297.960938 140.535156 L 297.960938 151 L 215.019531 151 Z M 215.019531 140.535156 "/></clipPath><clipPath id="98d647186b"><path d="M 295.535156 140.535156 L 378.410156 140.535156 L 378.410156 151 L 295.535156 151 Z M 295.535156 140.535156 "/></clipPath><clipPath id="7309ee19b0"><path d="M 376.140625 140.535156 L 459 140.535156 L 459 151 L 376.140625 151 Z M 376.140625 140.535156 "/></clipPath><clipPath id="c9b4d09d75"><path d="M 1.046875 0 L 208 0 L 208 201.824219 L 1.046875 201.824219 Z M 1.046875 0 "/></clipPath><clipPath id="1c701d4a63"><path d="M 104.335938 0 C 47.292969 0 1.046875 45.179688 1.046875 100.914062 C 1.046875 156.644531 47.292969 201.824219 104.335938 201.824219 C 161.382812 201.824219 207.625 156.644531 207.625 100.914062 C 207.625 45.179688 161.382812 0 104.335938 0 Z M 104.335938 0 "/></clipPath><clipPath id="7af9987033"><path d="M 27 44 L 194 44 L 194 136 L 27 136 Z M 27 44 "/></clipPath><clipPath id="d65e6c5dc1"><path d="M 44.785156 175.558594 L 196.527344 125.902344 L 163.910156 26.246094 L 12.167969 75.90625 Z M 44.785156 175.558594 "/></clipPath><clipPath id="09af22ebb7"><path d="M 26 44 L 195 44 L 195 136 L 26 136 Z M 26 44 "/></clipPath><clipPath id="a5b2daa04b"><path d="M 44.785156 175.558594 L 196.527344 125.902344 L 163.910156 26.246094 L 12.167969 75.90625 Z M 44.785156 175.558594 "/></clipPath><clipPath id="e13ac25a2e"><path d="M 114 139.25 L 196.699219 139.25 L 196.699219 149.710938 L 114 149.710938 Z M 114 139.25 "/></clipPath><clipPath id="b0a9aa2bbc"><path d="M 34.054688 139.25 L 116.929688 139.25 L 116.929688 149.710938 L 34.054688 149.710938 Z M 34.054688 139.25 "/></clipPath></defs><g id="4f4ad736ff"><g clip-rule="nonzero" clip-path="url(#a4ca973c2d)"><path style=" stroke:none;fill-rule:nonzero;fill:#ffffff;fill-opacity:1;" d="M 296.605469 146.492188 C 294.632812 146.492188 293.683594 145.511719 292.382812 144.164062 L 292.351562 144.132812 C 290.792969 142.527344 288.867188 140.535156 285.128906 140.535156 C 281.355469 140.535156 279.429688 142.542969 277.871094 144.164062 C 276.570312 145.511719 275.625 146.492188 273.648438 146.492188 C 271.675781 146.492188 270.726562 145.511719 269.425781 144.164062 L 269.378906 144.117188 C 267.835938 142.527344 265.925781 140.554688 262.21875 140.554688 C 258.445312 140.554688 256.519531 142.558594 254.976562 144.164062 L 254.960938 144.179688 C 253.660156 145.53125 252.714844 146.507812 250.738281 146.507812 C 248.765625 146.507812 247.816406 145.53125 246.519531 144.179688 L 246.46875 144.132812 C 244.929688 142.542969 243.003906 140.554688 239.261719 140.554688 C 235.488281 140.554688 233.5625 142.558594 232.019531 144.164062 L 232.003906 144.179688 C 230.703125 145.53125 229.757812 146.507812 227.78125 146.507812 C 225.808594 146.507812 224.859375 145.53125 223.558594 144.179688 L 223.527344 144.148438 C 221.972656 142.542969 220.042969 140.554688 216.304688 140.554688 L 215.339844 140.554688 L 215.339844 144.726562 L 216.304688 144.726562 C 218.277344 144.726562 219.226562 145.707031 220.527344 147.054688 L 220.574219 147.101562 C 222.117188 148.691406 224.042969 150.683594 227.78125 150.683594 C 231.554688 150.683594 233.480469 148.675781 235.023438 147.070312 L 235.039062 147.054688 C 236.339844 145.707031 237.285156 144.726562 239.261719 144.726562 C 241.234375 144.726562 242.183594 145.707031 243.484375 147.054688 L 243.515625 147.085938 C 245.074219 148.691406 247 150.683594 250.738281 150.683594 C 254.511719 150.683594 256.4375 148.675781 257.980469 147.070312 L 257.996094 147.054688 C 259.296875 145.707031 260.242188 144.726562 262.21875 144.726562 C 264.210938 144.726562 265.140625 145.707031 266.425781 147.054688 C 267.964844 148.660156 269.890625 150.667969 273.664062 150.667969 C 277.4375 150.667969 279.363281 148.660156 280.90625 147.054688 L 280.921875 147.039062 C 282.222656 145.691406 283.167969 144.710938 285.144531 144.710938 C 287.117188 144.710938 288.066406 145.691406 289.367188 147.039062 L 289.398438 147.070312 C 290.957031 148.675781 292.882812 150.667969 296.605469 150.667969 L 297.570312 150.667969 L 297.570312 146.492188 Z M 296.605469 146.492188 "/></g><g style="fill:#ffffff;fill-opacity:1;"><g transform="translate(212.658936, 137.292531)"><path style="stroke:none" d="M 14.9375 -20.546875 C 13.59375 -20.546875 12.359375 -20.179688 11.234375 -19.453125 C 10.117188 -18.734375 9.222656 -17.773438 8.546875 -16.578125 C 7.878906 -15.390625 7.546875 -14.070312 7.546875 -12.625 C 7.546875 -11.207031 7.878906 -9.894531 8.546875 -8.6875 C 9.222656 -7.476562 10.117188 -6.507812 11.234375 -5.78125 C 12.359375 -5.0625 13.59375 -4.703125 14.9375 -4.703125 C 15.757812 -4.703125 16.625 -4.820312 17.53125 -5.0625 C 18.445312 -5.300781 19.296875 -5.753906 20.078125 -6.421875 C 20.859375 -7.097656 21.476562 -8.070312 21.9375 -9.34375 L 15.46875 -9.34375 L 15.46875 -13.5625 L 27.984375 -13.5625 L 27.984375 -12.703125 C 27.984375 -10.910156 27.644531 -9.222656 26.96875 -7.640625 C 26.300781 -6.054688 25.367188 -4.660156 24.171875 -3.453125 C 22.972656 -2.242188 21.585938 -1.300781 20.015625 -0.625 C 18.453125 0.0390625 16.757812 0.375 14.9375 0.375 C 13.144531 0.375 11.457031 0.03125 9.875 -0.65625 C 8.300781 -1.34375 6.914062 -2.28125 5.71875 -3.46875 C 4.519531 -4.664062 3.578125 -6.054688 2.890625 -7.640625 C 2.210938 -9.222656 1.875 -10.910156 1.875 -12.703125 C 1.875 -14.492188 2.210938 -16.179688 2.890625 -17.765625 C 3.578125 -19.347656 4.519531 -20.734375 5.71875 -21.921875 C 6.914062 -23.117188 8.300781 -24.0625 9.875 -24.75 C 11.457031 -25.4375 13.144531 -25.78125 14.9375 -25.78125 C 16.8125 -25.78125 18.582031 -25.398438 20.25 -24.640625 C 21.914062 -23.878906 23.367188 -22.832031 24.609375 -21.5 C 25.859375 -20.164062 26.769531 -18.613281 27.34375 -16.84375 L 21.1875 -16.84375 C 20.5625 -18.1875 19.675781 -19.140625 18.53125 -19.703125 C 17.382812 -20.265625 16.1875 -20.546875 14.9375 -20.546875 Z M 14.9375 -20.546875 "/></g></g><g style="fill:#ffffff;fill-opacity:1;"><g transform="translate(241.95082, 137.292531)"><path style="stroke:none" d="M 10.71875 -3.890625 C 11.71875 -3.890625 12.488281 -4.097656 13.03125 -4.515625 C 13.582031 -4.941406 13.96875 -5.484375 14.1875 -6.140625 C 14.414062 -6.804688 14.53125 -7.488281 14.53125 -8.1875 C 14.53125 -8.882812 14.410156 -9.554688 14.171875 -10.203125 C 13.941406 -10.847656 13.550781 -11.378906 13 -11.796875 C 12.445312 -12.222656 11.6875 -12.4375 10.71875 -12.4375 C 9.75 -12.4375 8.984375 -12.222656 8.421875 -11.796875 C 7.859375 -11.378906 7.457031 -10.847656 7.21875 -10.203125 C 6.988281 -9.554688 6.875 -8.882812 6.875 -8.1875 C 6.875 -7.488281 6.984375 -6.804688 7.203125 -6.140625 C 7.429688 -5.484375 7.828125 -4.941406 8.390625 -4.515625 C 8.953125 -4.097656 9.726562 -3.890625 10.71875 -3.890625 Z M 10.71875 -16.8125 C 12.4375 -16.8125 14.003906 -16.445312 15.421875 -15.71875 C 16.847656 -15 17.984375 -14 18.828125 -12.71875 C 19.671875 -11.4375 20.09375 -9.9375 20.09375 -8.21875 C 20.09375 -6.476562 19.675781 -4.960938 18.84375 -3.671875 C 18.007812 -2.390625 16.882812 -1.398438 15.46875 -0.703125 C 14.050781 -0.00390625 12.46875 0.34375 10.71875 0.34375 C 8.976562 0.34375 7.390625 -0.00390625 5.953125 -0.703125 C 4.523438 -1.398438 3.394531 -2.390625 2.5625 -3.671875 C 1.726562 -4.960938 1.3125 -6.476562 1.3125 -8.21875 C 1.3125 -9.9375 1.734375 -11.4375 2.578125 -12.71875 C 3.421875 -14 4.554688 -15 5.984375 -15.71875 C 7.421875 -16.445312 9 -16.8125 10.71875 -16.8125 Z M 10.71875 -16.8125 "/></g></g><g style="fill:#ffffff;fill-opacity:1;"><g transform="translate(263.359304, 137.292531)"><path style="stroke:none" d="M 7.84375 0 L 2.234375 0 L 2.234375 -28.015625 L 7.84375 -28.015625 Z M 7.84375 0 "/></g></g><g style="fill:#ffffff;fill-opacity:1;"><g transform="translate(273.447068, 137.292531)"><path style="stroke:none" d="M 8.78125 -28.015625 L 12.921875 -28.015625 L 12.921875 -23.65625 L 10.53125 -23.65625 C 9.957031 -23.65625 9.570312 -23.476562 9.375 -23.125 C 9.175781 -22.78125 9.078125 -22.207031 9.078125 -21.40625 L 9.078125 -16.46875 L 12.921875 -16.46875 L 12.921875 -12.140625 L 9.078125 -12.140625 L 9.078125 0 L 3.46875 0 L 3.46875 -12.140625 L 1.125 -12.140625 L 1.125 -16.46875 L 3.46875 -16.46875 L 3.46875 -22.078125 C 3.46875 -24.117188 3.976562 -25.617188 5 -26.578125 C 6.019531 -27.535156 7.28125 -28.015625 8.78125 -28.015625 Z M 8.78125 -28.015625 "/></g></g><g style="fill:#ffffff;fill-opacity:1;"><g transform="translate(287.009505, 137.292531)"><path style="stroke:none" d="M 1.9375 -22.109375 C 1.9375 -23.035156 2.253906 -23.816406 2.890625 -24.453125 C 3.523438 -25.085938 4.304688 -25.40625 5.234375 -25.40625 C 6.128906 -25.40625 6.898438 -25.085938 7.546875 -24.453125 C 8.191406 -23.816406 8.515625 -23.035156 8.515625 -22.109375 C 8.515625 -21.210938 8.191406 -20.441406 7.546875 -19.796875 C 6.898438 -19.148438 6.128906 -18.828125 5.234375 -18.828125 C 4.304688 -18.828125 3.523438 -19.148438 2.890625 -19.796875 C 2.253906 -20.441406 1.9375 -21.210938 1.9375 -22.109375 Z M 8.03125 0 L 2.421875 0 L 2.421875 -16.46875 L 8.03125 -16.46875 Z M 8.03125 0 "/></g></g><g style="fill:#ffffff;fill-opacity:1;"><g transform="translate(297.47089, 137.292531)"><path style="stroke:none" d="M 19.09375 -9.34375 L 19.09375 0 L 13.484375 0 L 13.484375 -9.34375 C 13.484375 -10.3125 13.285156 -11.050781 12.890625 -11.5625 C 12.492188 -12.070312 11.859375 -12.328125 10.984375 -12.328125 C 10.109375 -12.328125 9.363281 -11.921875 8.75 -11.109375 C 8.144531 -10.304688 7.84375 -9.34375 7.84375 -8.21875 L 7.84375 0 L 2.234375 0 L 2.234375 -16.46875 L 7.84375 -16.46875 L 7.84375 -14.453125 C 8.414062 -15.179688 9.128906 -15.757812 9.984375 -16.1875 C 10.847656 -16.625 11.816406 -16.84375 12.890625 -16.84375 C 15.109375 -16.84375 16.695312 -16.148438 17.65625 -14.765625 C 18.613281 -13.390625 19.09375 -11.582031 19.09375 -9.34375 Z M 19.09375 -9.34375 "/></g></g><g style="fill:#ffffff;fill-opacity:1;"><g transform="translate(318.244214, 137.292531)"><path style="stroke:none" d="M 19.09375 -9.34375 L 19.09375 0 L 13.484375 0 L 13.484375 -9.34375 C 13.484375 -10.3125 13.285156 -11.050781 12.890625 -11.5625 C 12.492188 -12.070312 11.859375 -12.328125 10.984375 -12.328125 C 10.109375 -12.328125 9.363281 -11.921875 8.75 -11.109375 C 8.144531 -10.304688 7.84375 -9.34375 7.84375 -8.21875 L 7.84375 0 L 2.234375 0 L 2.234375 -28.015625 L 7.84375 -28.015625 L 7.84375 -14.453125 C 8.414062 -15.179688 9.128906 -15.757812 9.984375 -16.1875 C 10.847656 -16.625 11.816406 -16.84375 12.890625 -16.84375 C 15.109375 -16.84375 16.695312 -16.148438 17.65625 -14.765625 C 18.613281 -13.390625 19.09375 -11.582031 19.09375 -9.34375 Z M 19.09375 -9.34375 "/></g></g><g style="fill:#ffffff;fill-opacity:1;"><g transform="translate(339.017537, 137.292531)"><path style="stroke:none" d="M 10.71875 -3.890625 C 11.71875 -3.890625 12.488281 -4.097656 13.03125 -4.515625 C 13.582031 -4.941406 13.96875 -5.484375 14.1875 -6.140625 C 14.414062 -6.804688 14.53125 -7.488281 14.53125 -8.1875 C 14.53125 -8.882812 14.410156 -9.554688 14.171875 -10.203125 C 13.941406 -10.847656 13.550781 -11.378906 13 -11.796875 C 12.445312 -12.222656 11.6875 -12.4375 10.71875 -12.4375 C 9.75 -12.4375 8.984375 -12.222656 8.421875 -11.796875 C 7.859375 -11.378906 7.457031 -10.847656 7.21875 -10.203125 C 6.988281 -9.554688 6.875 -8.882812 6.875 -8.1875 C 6.875 -7.488281 6.984375 -6.804688 7.203125 -6.140625 C 7.429688 -5.484375 7.828125 -4.941406 8.390625 -4.515625 C 8.953125 -4.097656 9.726562 -3.890625 10.71875 -3.890625 Z M 10.71875 -16.8125 C 12.4375 -16.8125 14.003906 -16.445312 15.421875 -15.71875 C 16.847656 -15 17.984375 -14 18.828125 -12.71875 C 19.671875 -11.4375 20.09375 -9.9375 20.09375 -8.21875 C 20.09375 -6.476562 19.675781 -4.960938 18.84375 -3.671875 C 18.007812 -2.390625 16.882812 -1.398438 15.46875 -0.703125 C 14.050781 -0.00390625 12.46875 0.34375 10.71875 0.34375 C 8.976562 0.34375 7.390625 -0.00390625 5.953125 -0.703125 C 4.523438 -1.398438 3.394531 -2.390625 2.5625 -3.671875 C 1.726562 -4.960938 1.3125 -6.476562 1.3125 -8.21875 C 1.3125 -9.9375 1.734375 -11.4375 2.578125 -12.71875 C 3.421875 -14 4.554688 -15 5.984375 -15.71875 C 7.421875 -16.445312 9 -16.8125 10.71875 -16.8125 Z M 10.71875 -16.8125 "/></g></g><g style="fill:#ffffff;fill-opacity:1;"><g transform="translate(360.426022, 137.292531)"><path style="stroke:none" d=""/></g></g><g style="fill:#ffffff;fill-opacity:1;"><g transform="translate(369.766543, 137.292531)"><path style="stroke:none" d="M 16.0625 -9.71875 L 12.859375 -18.75 L 9.640625 -9.71875 Z M 25.546875 0 L 19.53125 0 L 17.703125 -5.125 L 8.03125 -5.125 L 6.203125 0 L 0.1875 0 L 10.5 -25.40625 L 15.25 -25.40625 Z M 25.546875 0 "/></g></g><g style="fill:#ffffff;fill-opacity:1;"><g transform="translate(395.509025, 137.292531)"><path style="stroke:none" d="M 17.515625 -4.453125 L 17.515625 0 L 0.1875 0 L 8.859375 -12.21875 L 0.9375 -12.21875 L 0.9375 -16.46875 L 17.453125 -16.46875 L 9.53125 -4.453125 Z M 17.515625 -4.453125 "/></g></g><g style="fill:#ffffff;fill-opacity:1;"><g transform="translate(413.592282, 137.292531)"><path style="stroke:none" d="M 1.875 -7.09375 L 1.875 -16.46875 L 7.46875 -16.46875 L 7.46875 -7.09375 C 7.46875 -6.144531 7.664062 -5.410156 8.0625 -4.890625 C 8.46875 -4.367188 9.101562 -4.109375 9.96875 -4.109375 C 10.84375 -4.109375 11.582031 -4.519531 12.1875 -5.34375 C 12.800781 -6.164062 13.109375 -7.125 13.109375 -8.21875 L 13.109375 -16.46875 L 18.71875 -16.46875 L 18.71875 0 L 13.109375 0 L 13.109375 -2.015625 C 12.566406 -1.316406 11.863281 -0.742188 11 -0.296875 C 10.144531 0.148438 9.164062 0.375 8.0625 0.375 C 5.875 0.375 4.296875 -0.3125 3.328125 -1.6875 C 2.359375 -3.070312 1.875 -4.875 1.875 -7.09375 Z M 1.875 -7.09375 "/></g></g><g style="fill:#ffffff;fill-opacity:1;"><g transform="translate(434.552404, 137.292531)"><path style="stroke:none" d="M 7.84375 0 L 2.234375 0 L 2.234375 -28.015625 L 7.84375 -28.015625 Z M 7.84375 0 "/></g></g><g style="fill:#ffffff;fill-opacity:1;"><g transform="translate(212.658936, 103.741341)"><path style="stroke:none" d="M 11.71875 0 L 3.34375 0 L 3.34375 -37.9375 L 11.71875 -37.9375 Z M 11.71875 0 "/></g></g><g style="fill:#ffffff;fill-opacity:1;"><g transform="translate(227.72124, 103.741341)"><path style="stroke:none" d="M 33.140625 0 L 24.78125 0 L 11.71875 -23.65625 L 11.71875 0 L 3.34375 0 L 3.34375 -37.9375 L 11.71875 -37.9375 L 24.78125 -14.28125 L 24.78125 -37.9375 L 33.140625 -37.9375 Z M 33.140625 0 "/></g></g><g style="fill:#ffffff;fill-opacity:1;"><g transform="translate(264.205494, 103.741341)"><path style="stroke:none" d="M 18.078125 -5.921875 C 18.972656 -5.921875 19.941406 -6.054688 20.984375 -6.328125 C 22.023438 -6.609375 22.925781 -7.070312 23.6875 -7.71875 C 24.445312 -8.375 24.828125 -9.257812 24.828125 -10.375 C 24.828125 -11.414062 24.425781 -12.253906 23.625 -12.890625 C 22.832031 -13.523438 21.785156 -14.046875 20.484375 -14.453125 C 19.179688 -14.859375 17.753906 -15.238281 16.203125 -15.59375 C 14.660156 -15.945312 13.109375 -16.375 11.546875 -16.875 C 9.984375 -17.375 8.550781 -18.035156 7.25 -18.859375 C 5.945312 -19.679688 4.894531 -20.742188 4.09375 -22.046875 C 3.300781 -23.347656 2.90625 -25 2.90625 -27 C 2.90625 -28.976562 3.3125 -30.679688 4.125 -32.109375 C 4.945312 -33.546875 6.035156 -34.738281 7.390625 -35.6875 C 8.742188 -36.632812 10.265625 -37.335938 11.953125 -37.796875 C 13.648438 -38.265625 15.359375 -38.5 17.078125 -38.5 C 19.679688 -38.5 22.113281 -38.085938 24.375 -37.265625 C 26.644531 -36.453125 28.492188 -35.160156 29.921875 -33.390625 C 31.359375 -31.628906 32.113281 -29.296875 32.1875 -26.390625 L 24.109375 -26.390625 C 23.878906 -28.359375 23.1875 -29.722656 22.03125 -30.484375 C 20.882812 -31.253906 19.269531 -31.640625 17.1875 -31.640625 C 16.40625 -31.640625 15.578125 -31.507812 14.703125 -31.25 C 13.828125 -30.988281 13.082031 -30.566406 12.46875 -29.984375 C 11.851562 -29.410156 11.546875 -28.640625 11.546875 -27.671875 C 11.546875 -26.703125 11.945312 -25.9375 12.75 -25.375 C 13.550781 -24.820312 14.601562 -24.359375 15.90625 -23.984375 C 17.207031 -23.617188 18.640625 -23.269531 20.203125 -22.9375 C 21.765625 -22.601562 23.316406 -22.191406 24.859375 -21.703125 C 26.398438 -21.222656 27.820312 -20.5625 29.125 -19.71875 C 30.425781 -18.882812 31.476562 -17.796875 32.28125 -16.453125 C 33.082031 -15.117188 33.484375 -13.410156 33.484375 -11.328125 C 33.484375 -9.097656 33.035156 -7.203125 32.140625 -5.640625 C 31.242188 -4.078125 30.039062 -2.820312 28.53125 -1.875 C 27.03125 -0.925781 25.335938 -0.226562 23.453125 0.21875 C 21.578125 0.664062 19.675781 0.890625 17.75 0.890625 C 14.957031 0.890625 12.34375 0.414062 9.90625 -0.53125 C 7.46875 -1.476562 5.492188 -2.9375 3.984375 -4.90625 C 2.484375 -6.882812 1.710938 -9.414062 1.671875 -12.5 L 10.15625 -12.5 C 10.269531 -10.226562 11.109375 -8.5625 12.671875 -7.5 C 14.234375 -6.445312 16.035156 -5.921875 18.078125 -5.921875 Z M 18.078125 -5.921875 "/></g></g><g style="fill:#ffffff;fill-opacity:1;"><g transform="translate(299.350877, 103.741341)"><path style="stroke:none" d="M 19.46875 -30.359375 L 19.46875 0 L 11.109375 0 L 11.109375 -30.359375 L 0.28125 -30.359375 L 0.28125 -37.9375 L 30.296875 -37.9375 L 30.296875 -30.359375 Z M 19.46875 -30.359375 "/></g></g><g style="fill:#ffffff;fill-opacity:1;"><g transform="translate(329.921783, 103.741341)"><path style="stroke:none" d="M 11.71875 0 L 3.34375 0 L 3.34375 -37.9375 L 11.71875 -37.9375 Z M 11.71875 0 "/></g></g><g style="fill:#ffffff;fill-opacity:1;"><g transform="translate(344.984087, 103.741341)"><path style="stroke:none" d="M 19.46875 -30.359375 L 19.46875 0 L 11.109375 0 L 11.109375 -30.359375 L 0.28125 -30.359375 L 0.28125 -37.9375 L 30.296875 -37.9375 L 30.296875 -30.359375 Z M 19.46875 -30.359375 "/></g></g><g style="fill:#ffffff;fill-opacity:1;"><g transform="translate(375.554992, 103.741341)"><path style="stroke:none" d="M 25.5 -37.9375 L 33.875 -37.9375 L 33.875 -14.78125 C 33.875 -9.726562 32.492188 -5.90625 29.734375 -3.3125 C 26.984375 -0.726562 23.132812 0.5625 18.1875 0.5625 C 13.238281 0.5625 9.390625 -0.726562 6.640625 -3.3125 C 3.890625 -5.90625 2.515625 -9.726562 2.515625 -14.78125 L 2.515625 -37.9375 L 10.875 -37.9375 L 10.875 -16.015625 C 10.875 -13.410156 11.382812 -11.390625 12.40625 -9.953125 C 13.4375 -8.523438 15.363281 -7.8125 18.1875 -7.8125 C 21.050781 -7.8125 22.984375 -8.523438 23.984375 -9.953125 C 24.992188 -11.390625 25.5 -13.410156 25.5 -16.015625 Z M 25.5 -37.9375 "/></g></g><g style="fill:#ffffff;fill-opacity:1;"><g transform="translate(411.927678, 103.741341)"><path style="stroke:none" d="M 11.71875 0 L 3.34375 0 L 3.34375 -37.9375 L 11.71875 -37.9375 Z M 11.71875 0 "/></g></g><g style="fill:#ffffff;fill-opacity:1;"><g transform="translate(426.989993, 103.741341)"><path style="stroke:none" d="M 30.75 -12.890625 L 40.0625 -12.890625 C 39.238281 -10.398438 37.972656 -8.164062 36.265625 -6.1875 C 34.554688 -4.21875 32.53125 -2.644531 30.1875 -1.46875 C 27.84375 -0.300781 25.296875 0.351562 22.546875 0.5 L 20.921875 4.015625 C 21.671875 3.828125 22.378906 3.8125 23.046875 3.96875 C 23.828125 4.144531 24.457031 4.578125 24.9375 5.265625 C 25.425781 5.960938 25.71875 6.785156 25.8125 7.734375 C 25.90625 8.679688 25.765625 9.617188 25.390625 10.546875 C 24.828125 11.847656 23.90625 12.757812 22.625 13.28125 C 21.34375 13.800781 19.9375 14.003906 18.40625 13.890625 C 16.882812 13.773438 15.453125 13.457031 14.109375 12.9375 L 13.671875 12.78125 L 15.171875 9.59375 L 15.5625 9.765625 C 16.3125 10.023438 17.078125 10.210938 17.859375 10.328125 C 18.929688 10.503906 19.800781 10.453125 20.46875 10.171875 C 21.144531 9.898438 21.59375 9.519531 21.8125 9.03125 C 22.039062 8.550781 22.050781 8.097656 21.84375 7.671875 C 21.632812 7.242188 21.21875 6.957031 20.59375 6.8125 C 20.03125 6.738281 19.40625 6.753906 18.71875 6.859375 C 18.03125 6.972656 17.390625 7.066406 16.796875 7.140625 L 16.015625 7.3125 L 19.078125 0.390625 C 16.660156 0.0859375 14.421875 -0.609375 12.359375 -1.703125 C 10.296875 -2.796875 8.484375 -4.21875 6.921875 -5.96875 C 5.359375 -7.71875 4.140625 -9.695312 3.265625 -11.90625 C 2.390625 -14.125 1.953125 -16.476562 1.953125 -18.96875 C 1.953125 -21.644531 2.453125 -24.164062 3.453125 -26.53125 C 4.460938 -28.894531 5.867188 -30.976562 7.671875 -32.78125 C 9.472656 -34.582031 11.554688 -35.984375 13.921875 -36.984375 C 16.285156 -37.992188 18.804688 -38.5 21.484375 -38.5 C 24.378906 -38.5 27.0625 -37.921875 29.53125 -36.765625 C 32.007812 -35.617188 34.160156 -34.046875 35.984375 -32.046875 C 37.804688 -30.054688 39.144531 -27.765625 40 -25.171875 L 30.6875 -25.171875 C 29.90625 -26.878906 28.660156 -28.222656 26.953125 -29.203125 C 25.242188 -30.191406 23.421875 -30.6875 21.484375 -30.6875 C 19.429688 -30.6875 17.566406 -30.15625 15.890625 -29.09375 C 14.222656 -28.039062 12.894531 -26.628906 11.90625 -24.859375 C 10.925781 -23.085938 10.4375 -21.125 10.4375 -18.96875 C 10.4375 -16.8125 10.925781 -14.847656 11.90625 -13.078125 C 12.894531 -11.316406 14.222656 -9.90625 15.890625 -8.84375 C 17.566406 -7.78125 19.429688 -7.25 21.484375 -7.25 C 23.453125 -7.25 25.289062 -7.769531 27 -8.8125 C 28.71875 -9.851562 29.96875 -11.210938 30.75 -12.890625 Z M 30.75 -12.890625 "/></g></g><g style="fill:#ffffff;fill-opacity:1;"><g transform="translate(468.439221, 103.741341)"><path style="stroke:none" d="M 24.890625 -48.265625 L 29.90625 -48.265625 C 29.90625 -45.878906 29.316406 -43.953125 28.140625 -42.484375 C 26.972656 -41.015625 25.332031 -40.28125 23.21875 -40.28125 C 22.25 -40.28125 21.4375 -40.425781 20.78125 -40.71875 C 20.132812 -41.019531 19.539062 -41.375 19 -41.78125 C 18.457031 -42.195312 17.90625 -42.550781 17.34375 -42.84375 C 16.789062 -43.144531 16.125 -43.296875 15.34375 -43.296875 C 14.488281 -43.296875 13.882812 -42.960938 13.53125 -42.296875 C 13.175781 -41.628906 13 -41.070312 13 -40.625 L 8.265625 -40.625 C 8.265625 -41.882812 8.515625 -43.128906 9.015625 -44.359375 C 9.515625 -45.585938 10.265625 -46.609375 11.265625 -47.421875 C 12.273438 -48.242188 13.523438 -48.65625 15.015625 -48.65625 C 16.273438 -48.65625 17.347656 -48.421875 18.234375 -47.953125 C 19.128906 -47.492188 19.921875 -47.03125 20.609375 -46.5625 C 21.304688 -46.09375 21.96875 -45.859375 22.59375 -45.859375 C 23.039062 -45.859375 23.535156 -45.96875 24.078125 -46.1875 C 24.617188 -46.414062 24.890625 -47.109375 24.890625 -48.265625 Z M 24 -14.5 L 19.1875 -28.015625 L 14.390625 -14.5 Z M 38.171875 0 L 29.1875 0 L 26.453125 -7.640625 L 12 -7.640625 L 9.265625 0 L 0.28125 0 L 15.671875 -37.9375 L 22.765625 -37.9375 Z M 38.171875 0 "/></g></g><g style="fill:#ffffff;fill-opacity:1;"><g transform="translate(506.875991, 103.741341)"><path style="stroke:none" d="M 32.640625 -19.03125 C 32.640625 -21 32.117188 -22.828125 31.078125 -24.515625 C 30.035156 -26.210938 28.664062 -27.582031 26.96875 -28.625 C 25.28125 -29.664062 23.453125 -30.1875 21.484375 -30.1875 C 19.546875 -30.1875 17.722656 -29.664062 16.015625 -28.625 C 14.304688 -27.582031 12.929688 -26.210938 11.890625 -24.515625 C 10.847656 -22.828125 10.328125 -21 10.328125 -19.03125 C 10.328125 -17.09375 10.847656 -15.265625 11.890625 -13.546875 C 12.929688 -11.835938 14.304688 -10.453125 16.015625 -9.390625 C 17.722656 -8.335938 19.546875 -7.8125 21.484375 -7.8125 C 23.453125 -7.8125 25.28125 -8.335938 26.96875 -9.390625 C 28.664062 -10.453125 30.035156 -11.835938 31.078125 -13.546875 C 32.117188 -15.265625 32.640625 -17.09375 32.640625 -19.03125 Z M 41.015625 -18.96875 C 41.015625 -16.363281 40.492188 -13.878906 39.453125 -11.515625 C 38.410156 -9.160156 36.984375 -7.078125 35.171875 -5.265625 C 33.367188 -3.460938 31.296875 -2.039062 28.953125 -1 C 26.609375 0.0390625 24.117188 0.5625 21.484375 0.5625 C 18.878906 0.5625 16.394531 0.0390625 14.03125 -1 C 11.664062 -2.039062 9.582031 -3.460938 7.78125 -5.265625 C 5.976562 -7.078125 4.554688 -9.160156 3.515625 -11.515625 C 2.472656 -13.878906 1.953125 -16.363281 1.953125 -18.96875 C 1.953125 -21.613281 2.472656 -24.109375 3.515625 -26.453125 C 4.554688 -28.796875 5.976562 -30.867188 7.78125 -32.671875 C 9.582031 -34.472656 11.664062 -35.894531 14.03125 -36.9375 C 16.394531 -37.976562 18.878906 -38.5 21.484375 -38.5 C 24.117188 -38.5 26.609375 -37.976562 28.953125 -36.9375 C 31.296875 -35.894531 33.367188 -34.472656 35.171875 -32.671875 C 36.984375 -30.867188 38.410156 -28.796875 39.453125 -26.453125 C 40.492188 -24.109375 41.015625 -21.613281 41.015625 -18.96875 Z M 41.015625 -18.96875 "/></g></g><g clip-rule="nonzero" clip-path="url(#98d647186b)"><path style=" stroke:none;fill-rule:nonzero;fill:#ffffff;fill-opacity:1;" d="M 296.824219 146.492188 C 298.796875 146.492188 299.742188 145.511719 301.042969 144.164062 L 301.078125 144.132812 C 302.632812 142.527344 304.558594 140.535156 308.300781 140.535156 C 312.074219 140.535156 314 142.542969 315.558594 144.164062 C 316.859375 145.511719 317.804688 146.492188 319.78125 146.492188 C 321.753906 146.492188 322.703125 145.511719 324 144.164062 L 324.050781 144.117188 C 325.589844 142.527344 327.5 140.554688 331.210938 140.554688 C 334.984375 140.554688 336.910156 142.558594 338.449219 144.164062 L 338.464844 144.179688 C 339.765625 145.53125 340.714844 146.507812 342.6875 146.507812 C 344.664062 146.507812 345.609375 145.53125 346.910156 144.179688 L 346.960938 144.132812 C 348.5 142.542969 350.425781 140.554688 354.167969 140.554688 C 357.941406 140.554688 359.867188 142.558594 361.40625 144.164062 L 361.421875 144.179688 C 362.722656 145.53125 363.671875 146.507812 365.644531 146.507812 C 367.621094 146.507812 368.566406 145.53125 369.867188 144.179688 L 369.898438 144.148438 C 371.457031 142.542969 373.382812 140.554688 377.125 140.554688 L 378.085938 140.554688 L 378.085938 144.726562 L 377.125 144.726562 C 375.148438 144.726562 374.203125 145.707031 372.902344 147.054688 L 372.855469 147.101562 C 371.3125 148.691406 369.386719 150.683594 365.644531 150.683594 C 361.875 150.683594 359.945312 148.675781 358.40625 147.070312 L 358.390625 147.054688 C 357.089844 145.707031 356.140625 144.726562 354.167969 144.726562 C 352.191406 144.726562 351.246094 145.707031 349.945312 147.054688 L 349.914062 147.085938 C 348.355469 148.691406 346.429688 150.683594 342.6875 150.683594 C 338.914062 150.683594 336.988281 148.675781 335.449219 147.070312 L 335.433594 147.054688 C 334.132812 145.707031 333.183594 144.726562 331.210938 144.726562 C 329.21875 144.726562 328.289062 145.707031 327.003906 147.054688 C 325.460938 148.660156 323.535156 150.667969 319.761719 150.667969 C 315.992188 150.667969 314.0625 148.660156 312.523438 147.054688 L 312.507812 147.039062 C 311.207031 145.691406 310.257812 144.710938 308.285156 144.710938 C 306.308594 144.710938 305.363281 145.691406 304.0625 147.039062 L 304.03125 147.070312 C 302.472656 148.675781 300.546875 150.667969 296.824219 150.667969 L 295.859375 150.667969 L 295.859375 146.492188 Z M 296.824219 146.492188 "/></g><g clip-rule="nonzero" clip-path="url(#7309ee19b0)"><path style=" stroke:none;fill-rule:nonzero;fill:#ffffff;fill-opacity:1;" d="M 457.726562 146.492188 C 455.753906 146.492188 454.804688 145.511719 453.507812 144.164062 L 453.472656 144.132812 C 451.917969 142.527344 449.988281 140.535156 446.25 140.535156 C 442.476562 140.535156 440.550781 142.542969 438.992188 144.164062 C 437.691406 145.511719 436.746094 146.492188 434.769531 146.492188 C 432.796875 146.492188 431.847656 145.511719 430.546875 144.164062 L 430.5 144.117188 C 428.960938 142.527344 427.050781 140.554688 423.339844 140.554688 C 419.566406 140.554688 417.640625 142.558594 416.101562 144.164062 L 416.082031 144.179688 C 414.785156 145.53125 413.835938 146.507812 411.863281 146.507812 C 409.886719 146.507812 408.941406 145.53125 407.640625 144.179688 L 407.589844 144.132812 C 406.050781 142.542969 404.125 140.554688 400.382812 140.554688 C 396.609375 140.554688 394.683594 142.558594 393.144531 144.164062 L 393.125 144.179688 C 391.828125 145.53125 390.878906 146.507812 388.90625 146.507812 C 386.929688 146.507812 385.984375 145.53125 384.683594 144.179688 L 384.648438 144.148438 C 383.09375 142.542969 381.167969 140.554688 377.425781 140.554688 L 376.460938 140.554688 L 376.460938 144.726562 L 377.425781 144.726562 C 379.402344 144.726562 380.347656 145.707031 381.648438 147.054688 L 381.695312 147.101562 C 383.238281 148.691406 385.164062 150.683594 388.90625 150.683594 C 392.675781 150.683594 394.605469 148.675781 396.144531 147.070312 L 396.160156 147.054688 C 397.460938 145.707031 398.410156 144.726562 400.382812 144.726562 C 402.359375 144.726562 403.304688 145.707031 404.605469 147.054688 L 404.636719 147.085938 C 406.195312 148.691406 408.121094 150.683594 411.863281 150.683594 C 415.632812 150.683594 417.5625 148.675781 419.101562 147.070312 L 419.117188 147.054688 C 420.417969 145.707031 421.367188 144.726562 423.339844 144.726562 C 425.332031 144.726562 426.261719 145.707031 427.546875 147.054688 C 429.085938 148.660156 431.015625 150.667969 434.785156 150.667969 C 438.558594 150.667969 440.484375 148.660156 442.027344 147.054688 L 442.042969 147.039062 C 443.34375 145.691406 444.289062 144.710938 446.265625 144.710938 C 448.238281 144.710938 449.1875 145.691406 450.488281 147.039062 L 450.519531 147.070312 C 452.078125 148.675781 454.003906 150.667969 457.726562 150.667969 L 458.691406 150.667969 L 458.691406 146.492188 Z M 457.726562 146.492188 "/></g><g clip-rule="nonzero" clip-path="url(#c9b4d09d75)"><g clip-rule="nonzero" clip-path="url(#1c701d4a63)"><path style=" stroke:none;fill-rule:nonzero;fill:#ffffff;fill-opacity:1;" d="M 1.046875 0 L 207.601562 0 L 207.601562 201.824219 L 1.046875 201.824219 Z M 1.046875 0 "/></g></g><g clip-rule="nonzero" clip-path="url(#7af9987033)"><g clip-rule="nonzero" clip-path="url(#d65e6c5dc1)"><path style=" stroke:none;fill-rule:nonzero;fill:#0a6682;fill-opacity:1;" d="M 89.664062 52.65625 C 87.179688 54.640625 85.0625 56.898438 82.871094 59.007812 C 82.125 59.726562 81.339844 60.734375 80.585938 61.210938 C 78.664062 62.425781 75.082031 62.574219 72.382812 63.351562 C 65.628906 65.296875 61.472656 67.207031 56.261719 69.839844 C 53.820312 71.070312 51.28125 72.304688 49.246094 73.710938 C 47.507812 74.914062 45.71875 76.910156 43.917969 78.691406 C 41.070312 81.5 39.273438 83.855469 37.289062 86.769531 C 33.972656 91.640625 32.585938 96.855469 30.886719 102.640625 C 30.144531 105.167969 29.109375 108.910156 29.808594 111.386719 C 28.871094 114.875 26.597656 117.5625 27.257812 122.007812 C 29.066406 124.144531 30.9375 121.105469 32.230469 119.777344 C 33.300781 118.671875 34.421875 117.40625 35.460938 116.707031 C 40.855469 113.0625 49.933594 112.773438 55.214844 109.328125 C 57.089844 108.105469 58.503906 106.410156 60.386719 105.273438 C 62.175781 104.191406 63.917969 104.5 65.496094 104.652344 C 66.332031 104.734375 67.25 104.914062 68.027344 105.042969 C 73.082031 105.886719 78.175781 106.867188 84.261719 105.871094 C 89.144531 105.070312 92.734375 102.371094 96.269531 100.390625 C 97.164062 99.890625 98.425781 99.550781 98.882812 98.484375 C 95.640625 98.785156 92.753906 98.425781 89.195312 98.203125 C 84.519531 97.914062 80.941406 97.851562 78.296875 95.058594 C 79.988281 93.960938 82.25 93.621094 84.289062 93.332031 C 86.515625 93.015625 88.71875 92.679688 90.847656 92.355469 C 99.84375 90.984375 107.042969 91.269531 114.550781 92.234375 C 118.195312 92.703125 121.785156 93.84375 125.03125 94.722656 C 131.683594 96.53125 137.820312 99.472656 143.820312 102.894531 C 146.539062 104.449219 149.222656 106.625 152.25 108.546875 C 153.570312 109.386719 154.941406 110.359375 156.417969 111.449219 C 157.824219 112.484375 159.839844 113.652344 160.429688 114.765625 C 161.085938 115.996094 160.871094 117.648438 160.992188 119.183594 C 161.207031 121.855469 161.636719 124.652344 162.667969 127.125 C 164.003906 130.328125 165.777344 133.289062 168.113281 135.28125 C 168.578125 134.472656 168.507812 133.335938 168.53125 132.269531 C 169.496094 129.5625 171.011719 126.683594 169.890625 123.074219 C 175.230469 123.964844 184.015625 120.871094 189.3125 119.070312 C 190.902344 118.527344 192.585938 118.164062 193.707031 117.101562 C 190.378906 116.378906 187.652344 114.976562 184.53125 113.660156 C 179.816406 111.667969 175.898438 109.96875 169.925781 110.03125 C 167.992188 110.050781 165.886719 110.410156 164.585938 109.695312 C 163.589844 109.152344 162.796875 107.488281 161.875 105.933594 C 159.382812 101.730469 156.496094 97.355469 154.082031 93.925781 C 146.820312 83.609375 138.128906 75.175781 128.414062 69.597656 C 123.488281 66.769531 118.105469 64.914062 112.269531 62.804688 C 111.0625 61.804688 109.015625 60.589844 108.082031 58.769531 C 107.117188 56.894531 107.117188 54.972656 107.890625 53.246094 C 109.898438 50.429688 113.980469 48.855469 114.820312 45.347656 C 111.910156 44.40625 108.832031 44.859375 105.882812 45.515625 C 99.503906 46.933594 93.871094 49.296875 89.664062 52.65625 "/></g></g><g clip-rule="nonzero" clip-path="url(#09af22ebb7)"><g clip-rule="nonzero" clip-path="url(#a5b2daa04b)"><path style="fill:none;stroke-width:1;stroke-linecap:butt;stroke-linejoin:miter;stroke:#000000;stroke-opacity:1;stroke-miterlimit:4;" d="M 459.314424 932.510173 C 433.291521 922.645387 409.574479 909.465692 385.644579 897.740685 C 377.495733 893.743823 368.236885 887.420167 360.681402 885.484519 C 341.420848 880.550293 311.273147 889.172975 286.746802 890.065852 C 225.376978 892.297747 185.672974 887.666054 135.247023 879.855148 C 111.629948 876.221264 87.191344 872.823641 66.469913 866.589635 C 48.765724 861.248081 28.484668 849.368178 8.690221 839.329969 C -22.589402 823.524963 -43.91207 808.639969 -68.309879 789.567335 C -109.087508 757.684109 -134.775779 717.587237 -164.609011 673.548558 C -177.64096 654.309113 -196.407445 625.645844 -197.33231 602.861265 C -214.597796 576.067211 -240.780137 559.699382 -247.380192 520.441829 C -238.169438 497.46172 -214.372552 517.899319 -200.026389 525.520984 C -188.134259 531.881144 -175.385169 539.450162 -164.856669 542.475052 C -110.156474 558.300541 -33.988423 535.713835 19.229662 550.173748 C 38.122211 555.302968 54.471877 565.683294 73.195732 570.067223 C 90.992477 574.248973 104.620433 566.848199 117.310725 561.215539 C 124.029184 558.220665 131.163391 554.177243 137.267902 550.949088 C 176.947516 529.91135 216.579909 507.614514 269.823231 499.229442 C 312.545276 492.515522 349.690566 505.353761 384.428268 512.289481 C 393.215165 514.034926 404.615808 513.419505 411.309241 521.141013 C 383.569463 527.54399 360.575631 538.527001 331.631137 550.210403 C 293.59029 565.532269 264.048328 575.920681 249.679773 606.731684 C 266.708072 611.314187 286.412457 607.942562 304.129944 604.756949 C 323.4787 601.284833 342.685921 598.041807 361.244998 594.904648 C 439.672713 581.656807 498.678153 559.41273 558.398767 530.593838 C 587.388011 516.600995 614.097069 497.10041 638.663035 480.751443 C 688.986846 447.184409 731.950192 405.498097 772.472405 360.142145 C 790.822753 339.555275 807.193114 313.834506 827.107973 289.304668 C 835.788915 278.592527 844.530562 266.621889 853.829494 253.373613 C 862.693202 240.779707 876.256035 225.387704 878.128182 214.386018 C 880.233248 202.214361 873.95837 188.890622 870.791532 175.627913 C 865.313705 152.533465 861.280151 127.794126 863.123005 104.127299 C 865.510579 73.468748 872.189277 43.644039 886.171776 20.427692 C 892.229379 25.956392 894.734986 35.723532 897.827969 44.640113 C 913.197167 64.779184 933.607046 84.847705 934.107618 118.335504 C 976.027695 96.11704 1057.385811 97.958644 1106.264004 98.525395 C 1120.941381 98.716296 1135.908865 97.13549 1148.105886 102.993808 C 1122.434084 118.252947 1103.604812 137.578324 1081.265886 157.267352 C 1047.529562 187.04045 1019.614029 212.149842 969.848761 228.085332 C 953.739612 233.250221 935.279604 236.026698 926.42111 245.632267 C 919.625527 252.95054 917.56364 269.15071 914.13408 284.785026 C 904.863182 327.052349 892.783334 371.854597 882.059057 407.39277 C 849.79836 514.291408 800.548648 609.273676 735.039756 683.028242 C 701.823838 720.422919 662.169288 750.885642 619.442191 784.735646 C 612.137194 796.484382 598.442269 812.357294 595.637336 830.260979 C 592.721546 848.711369 597.94497 864.89723 609.059984 877.306434 C 633.386995 895.492017 671.561669 897.499036 688.069326 924.726741 C 666.462766 940.676166 639.671269 945.343928 613.398107 947.945697 C 556.575443 953.585258 503.378904 949.207094 459.314424 932.510173 " transform="matrix(0.108776,-0.0355986,-0.0351036,-0.10725,72.436224,169.018626)"/></g></g><g clip-rule="nonzero" clip-path="url(#e13ac25a2e)"><path style=" stroke:none;fill-rule:nonzero;fill:#0a6682;fill-opacity:1;" d="M 195.34375 145.203125 C 193.367188 145.203125 192.421875 144.226562 191.121094 142.875 L 191.089844 142.84375 C 189.53125 141.238281 187.605469 139.25 183.863281 139.25 C 180.09375 139.25 178.164062 141.253906 176.609375 142.875 C 175.308594 144.226562 174.359375 145.203125 172.386719 145.203125 C 170.410156 145.203125 169.464844 144.226562 168.164062 142.875 L 168.117188 142.828125 C 166.574219 141.238281 164.664062 139.265625 160.957031 139.265625 C 157.183594 139.265625 155.257812 141.269531 153.714844 142.875 L 153.699219 142.894531 C 152.398438 144.242188 151.453125 145.21875 149.476562 145.21875 C 147.503906 145.21875 146.554688 144.242188 145.253906 142.894531 L 145.207031 142.84375 C 143.664062 141.253906 141.738281 139.265625 138 139.265625 C 134.226562 139.265625 132.300781 141.269531 130.757812 142.875 L 130.742188 142.894531 C 129.441406 144.242188 128.496094 145.21875 126.519531 145.21875 C 124.546875 145.21875 123.597656 144.242188 122.296875 142.894531 L 122.265625 142.859375 C 120.707031 141.253906 118.78125 139.265625 115.042969 139.265625 L 114.078125 139.265625 L 114.078125 143.4375 L 115.042969 143.4375 C 117.015625 143.4375 117.964844 144.417969 119.261719 145.765625 L 119.3125 145.816406 C 120.851562 147.402344 122.78125 149.394531 126.519531 149.394531 C 130.292969 149.394531 132.21875 147.386719 133.761719 145.78125 L 133.777344 145.765625 C 135.078125 144.417969 136.023438 143.4375 138 143.4375 C 139.972656 143.4375 140.921875 144.417969 142.222656 145.765625 L 142.253906 145.796875 C 143.808594 147.402344 145.738281 149.394531 149.476562 149.394531 C 153.25 149.394531 155.175781 147.386719 156.71875 145.78125 L 156.734375 145.765625 C 158.035156 144.417969 158.980469 143.4375 160.957031 143.4375 C 162.945312 143.4375 163.878906 144.417969 165.164062 145.765625 C 166.703125 147.371094 168.628906 149.378906 172.402344 149.378906 C 176.175781 149.378906 178.101562 147.371094 179.644531 145.765625 L 179.660156 145.75 C 180.960938 144.402344 181.90625 143.421875 183.882812 143.421875 C 185.855469 143.421875 186.804688 144.402344 188.101562 145.75 L 188.136719 145.78125 C 189.691406 147.386719 191.621094 149.378906 195.34375 149.378906 L 196.308594 149.378906 L 196.308594 145.203125 Z M 195.34375 145.203125 "/></g><g clip-rule="nonzero" clip-path="url(#b0a9aa2bbc)"><path style=" stroke:none;fill-rule:nonzero;fill:#0a6682;fill-opacity:1;" d="M 35.339844 145.203125 C 37.316406 145.203125 38.261719 144.226562 39.5625 142.875 L 39.597656 142.84375 C 41.152344 141.238281 43.078125 139.25 46.820312 139.25 C 50.59375 139.25 52.519531 141.253906 54.078125 142.875 C 55.378906 144.226562 56.324219 145.203125 58.300781 145.203125 C 60.273438 145.203125 61.222656 144.226562 62.519531 142.875 L 62.570312 142.828125 C 64.109375 141.238281 66.019531 139.265625 69.730469 139.265625 C 73.503906 139.265625 75.429688 141.269531 76.96875 142.875 L 76.984375 142.894531 C 78.285156 144.242188 79.234375 145.21875 81.207031 145.21875 C 83.183594 145.21875 84.128906 144.242188 85.429688 142.894531 L 85.480469 142.84375 C 87.019531 141.253906 88.945312 139.265625 92.6875 139.265625 C 96.460938 139.265625 98.386719 141.269531 99.925781 142.875 L 99.941406 142.894531 C 101.242188 144.242188 102.191406 145.21875 104.164062 145.21875 C 106.140625 145.21875 107.085938 144.242188 108.386719 142.894531 L 108.417969 142.859375 C 109.976562 141.253906 111.902344 139.265625 115.644531 139.265625 L 116.605469 139.265625 L 116.605469 143.4375 L 115.644531 143.4375 C 113.667969 143.4375 112.722656 144.417969 111.421875 145.765625 L 111.375 145.816406 C 109.832031 147.402344 107.90625 149.394531 104.164062 149.394531 C 100.394531 149.394531 98.464844 147.386719 96.925781 145.78125 L 96.910156 145.765625 C 95.609375 144.417969 94.660156 143.4375 92.6875 143.4375 C 90.710938 143.4375 89.765625 144.417969 88.464844 145.765625 L 88.433594 145.796875 C 86.875 147.402344 84.949219 149.394531 81.207031 149.394531 C 77.433594 149.394531 75.507812 147.386719 73.96875 145.78125 L 73.953125 145.765625 C 72.652344 144.417969 71.703125 143.4375 69.730469 143.4375 C 67.738281 143.4375 66.808594 144.417969 65.523438 145.765625 C 63.980469 147.371094 62.054688 149.378906 58.28125 149.378906 C 54.511719 149.378906 52.582031 147.371094 51.042969 145.765625 L 51.027344 145.75 C 49.726562 144.402344 48.777344 143.421875 46.804688 143.421875 C 44.828125 143.421875 43.882812 144.402344 42.582031 145.75 L 42.550781 145.78125 C 40.992188 147.386719 39.066406 149.378906 35.339844 149.378906 L 34.378906 149.378906 L 34.378906 145.203125 Z M 35.339844 145.203125 "/></g></g></svg>