<svg xmlns="http://www.w3.org/2000/svg" xmlns:xlink="http://www.w3.org/1999/xlink" width="277" zoomAndPan="magnify" viewBox="0 0 207.75 203.249992" height="271" preserveAspectRatio="xMidYMid meet" version="1.2"><defs><clipPath id="0d6ec862c5"><path d="M 0.257812 0 L 207 0 L 207 201.824219 L 0.257812 201.824219 Z M 0.257812 0 "/></clipPath><clipPath id="f9b7de6b5e"><path d="M 103.546875 0 C 46.5 0 0.257812 45.179688 0.257812 100.914062 C 0.257812 156.644531 46.5 201.824219 103.546875 201.824219 C 160.589844 201.824219 206.835938 156.644531 206.835938 100.914062 C 206.835938 45.179688 160.589844 0 103.546875 0 Z M 103.546875 0 "/></clipPath><clipPath id="514ed7a1ab"><path d="M 26 44 L 193 44 L 193 136 L 26 136 Z M 26 44 "/></clipPath><clipPath id="d3d320c11c"><path d="M 43.996094 175.558594 L 195.738281 125.902344 L 163.121094 26.246094 L 11.378906 75.90625 Z M 43.996094 175.558594 "/></clipPath><clipPath id="35f40718db"><path d="M 25 44 L 194 44 L 194 136 L 25 136 Z M 25 44 "/></clipPath><clipPath id="14a79ac0fe"><path d="M 43.996094 175.558594 L 195.738281 125.902344 L 163.121094 26.246094 L 11.378906 75.90625 Z M 43.996094 175.558594 "/></clipPath><clipPath id="74b959efc4"><path d="M 113 139.25 L 195.910156 139.25 L 195.910156 149.710938 L 113 149.710938 Z M 113 139.25 "/></clipPath><clipPath id="5a852738da"><path d="M 33.265625 139.25 L 116 139.25 L 116 149.710938 L 33.265625 149.710938 Z M 33.265625 139.25 "/></clipPath></defs><g id="85704fd7cc"><g clip-rule="nonzero" clip-path="url(#0d6ec862c5)"><g clip-rule="nonzero" clip-path="url(#f9b7de6b5e)"><path style=" stroke:none;fill-rule:nonzero;fill:#ffffff;fill-opacity:1;" d="M 0.257812 0 L 206.8125 0 L 206.8125 201.824219 L 0.257812 201.824219 Z M 0.257812 0 "/></g></g><g clip-rule="nonzero" clip-path="url(#514ed7a1ab)"><g clip-rule="nonzero" clip-path="url(#d3d320c11c)"><path style=" stroke:none;fill-rule:nonzero;fill:#0a6682;fill-opacity:1;" d="M 88.875 52.65625 C 86.390625 54.640625 84.269531 56.898438 82.082031 59.007812 C 81.332031 59.726562 80.546875 60.734375 79.796875 61.210938 C 77.875 62.425781 74.292969 62.574219 71.59375 63.351562 C 64.839844 65.296875 60.683594 67.207031 55.46875 69.839844 C 53.03125 71.070312 50.492188 72.304688 48.457031 73.710938 C 46.71875 74.914062 44.929688 76.910156 43.125 78.691406 C 40.277344 81.5 38.484375 83.855469 36.5 86.769531 C 33.179688 91.640625 31.796875 96.855469 30.097656 102.640625 C 29.355469 105.167969 28.320312 108.910156 29.015625 111.386719 C 28.082031 114.875 25.804688 117.5625 26.46875 122.007812 C 28.273438 124.144531 30.148438 121.105469 31.441406 119.777344 C 32.511719 118.671875 33.632812 117.40625 34.671875 116.707031 C 40.0625 113.0625 49.144531 112.773438 54.425781 109.328125 C 56.296875 108.105469 57.710938 106.410156 59.597656 105.273438 C 61.386719 104.191406 63.125 104.5 64.703125 104.652344 C 65.542969 104.734375 66.457031 104.914062 67.238281 105.042969 C 72.289062 105.886719 77.382812 106.867188 83.46875 105.871094 C 88.355469 105.070312 91.941406 102.371094 95.476562 100.390625 C 96.375 99.890625 97.636719 99.550781 98.09375 98.484375 C 94.851562 98.785156 91.964844 98.425781 88.402344 98.203125 C 83.726562 97.914062 80.152344 97.851562 77.503906 95.058594 C 79.195312 93.960938 81.460938 93.621094 83.5 93.332031 C 85.726562 93.015625 87.929688 92.679688 90.058594 92.355469 C 99.050781 90.984375 106.253906 91.269531 113.757812 92.234375 C 117.40625 92.703125 120.996094 93.84375 124.242188 94.722656 C 130.894531 96.53125 137.03125 99.472656 143.03125 102.894531 C 145.75 104.449219 148.433594 106.625 151.457031 108.546875 C 152.78125 109.386719 154.152344 110.359375 155.628906 111.449219 C 157.035156 112.484375 159.050781 113.652344 159.640625 114.765625 C 160.296875 115.996094 160.078125 117.648438 160.203125 119.183594 C 160.414062 121.855469 160.847656 124.652344 161.875 127.125 C 163.210938 130.328125 164.984375 133.289062 167.324219 135.28125 C 167.789062 134.472656 167.71875 133.335938 167.742188 132.269531 C 168.707031 129.5625 170.21875 126.683594 169.101562 123.074219 C 174.4375 123.964844 183.226562 120.871094 188.519531 119.070312 C 190.113281 118.527344 191.796875 118.164062 192.914062 117.101562 C 189.589844 116.378906 186.859375 114.976562 183.742188 113.660156 C 179.023438 111.667969 175.109375 109.96875 169.136719 110.03125 C 167.199219 110.050781 165.09375 110.410156 163.796875 109.695312 C 162.800781 109.152344 162.007812 107.488281 161.082031 105.933594 C 158.59375 101.730469 155.707031 97.355469 153.292969 93.925781 C 146.03125 83.609375 137.339844 75.175781 127.621094 69.597656 C 122.699219 66.769531 117.316406 64.914062 111.476562 62.804688 C 110.269531 61.804688 108.226562 60.589844 107.289062 58.769531 C 106.328125 56.894531 106.328125 54.972656 107.101562 53.246094 C 109.105469 50.429688 113.1875 48.855469 114.03125 45.347656 C 111.121094 44.40625 108.042969 44.859375 105.09375 45.515625 C 98.714844 46.933594 93.082031 49.296875 88.875 52.65625 "/></g></g><g clip-rule="nonzero" clip-path="url(#35f40718db)"><g clip-rule="nonzero" clip-path="url(#14a79ac0fe)"><path style="fill:none;stroke-width:1;stroke-linecap:butt;stroke-linejoin:miter;stroke:#000000;stroke-opacity:1;stroke-miterlimit:4;" d="M 459.325928 932.506354 C 433.303026 922.641568 409.553548 909.472639 385.656084 897.736867 C 377.474801 893.750771 368.215953 887.427114 360.692907 885.4807 C 341.432353 880.546474 311.284652 889.169156 286.758307 890.062034 C 225.388483 892.293929 185.684478 887.662235 135.226091 879.862096 C 111.641453 876.217445 87.202849 872.819823 66.481418 866.585816 C 48.777229 861.244262 28.496173 849.364359 8.669289 839.336917 C -22.610334 823.531911 -43.900565 808.63615 -68.298374 789.563517 C -109.10844 757.691056 -134.764274 717.583418 -164.597506 673.544739 C -177.629455 654.305295 -196.39594 625.642026 -197.353242 602.868213 C -214.586291 576.063392 -240.801068 559.70633 -247.368687 520.438011 C -238.19037 497.468668 -214.361047 517.8955 -200.014884 525.517165 C -188.122754 531.877325 -175.373664 539.446343 -164.845164 542.471233 C -110.177405 558.307489 -33.976918 535.710016 19.241167 550.169929 C 38.10128 555.309915 54.450945 565.690242 73.207237 570.063404 C 91.003982 574.245154 104.599501 566.855147 117.289793 561.222487 C 124.040689 558.216846 131.14246 554.184191 137.279407 550.945269 C 176.926584 529.918298 216.558978 507.621462 269.802299 499.236389 C 312.556781 492.511703 349.669634 505.360709 384.407337 512.296428 C 393.22667 514.031107 404.627312 513.415686 411.320746 521.137194 C 383.580968 527.540171 360.587136 538.523182 331.610206 550.21735 C 293.569358 565.539217 264.059833 575.916863 249.658841 606.738632 C 266.687141 611.321135 286.423962 607.938744 304.141449 604.75313 C 323.490205 601.281014 342.697426 598.037988 361.256503 594.900829 C 439.651781 581.663755 498.689658 559.408912 558.377836 530.600786 C 587.399516 516.597176 614.108574 497.096592 638.67454 480.747624 C 688.998351 447.180591 731.961697 405.494279 772.48391 360.138326 C 790.834258 339.551456 807.204619 313.830687 827.087042 289.311615 C 835.80042 278.588709 844.542067 266.61807 853.840998 253.369795 C 862.704707 240.775889 876.26754 225.383885 878.139687 214.3822 C 880.244753 202.210542 873.937438 188.897569 870.803037 175.624094 C 865.292774 152.540413 861.291656 127.790307 863.102073 104.134246 C 865.489647 73.475695 872.168345 43.650986 886.183281 20.423873 C 892.240884 25.952574 894.746491 35.719714 897.839473 44.636294 C 913.208672 64.775365 933.586115 84.854652 934.119123 118.331685 C 976.006764 96.123988 1057.397316 97.954825 1106.243072 98.532343 C 1120.952886 98.712477 1135.92037 97.131672 1148.084954 103.000756 C 1122.445589 118.249128 1103.58388 137.585272 1081.277391 157.263533 C 1047.50863 187.047398 1019.625534 212.146023 969.860266 228.081513 C 953.718681 233.257168 935.258672 236.033646 926.432615 245.628448 C 919.637032 252.946721 917.575144 269.146891 914.113148 284.791974 C 904.874687 327.048531 892.794839 371.850779 882.070562 407.388951 C 849.809865 514.287589 800.560153 609.269857 735.018824 683.03519 C 701.835343 720.4191 662.180793 750.881823 619.42126 784.742594 C 612.116262 796.49133 598.453774 812.353475 595.616405 830.267927 C 592.733051 848.70755 597.956475 864.893411 609.071489 877.302616 C 633.366063 895.498964 671.540737 897.505984 688.080831 924.722922 C 666.474271 940.672347 639.682774 945.340109 613.409612 947.941879 C 556.586948 953.581439 503.390409 949.203275 459.325928 932.506354 " transform="matrix(0.108776,-0.0355986,-0.0351036,-0.10725,71.645776,169.018626)"/></g></g><g clip-rule="nonzero" clip-path="url(#74b959efc4)"><path style=" stroke:none;fill-rule:nonzero;fill:#0a6682;fill-opacity:1;" d="M 194.554688 145.203125 C 192.578125 145.203125 191.632812 144.226562 190.332031 142.875 L 190.300781 142.84375 C 188.742188 141.238281 186.816406 139.25 183.074219 139.25 C 179.300781 139.25 177.375 141.253906 175.816406 142.875 C 174.519531 144.226562 173.570312 145.203125 171.597656 145.203125 C 169.621094 145.203125 168.675781 144.226562 167.375 142.875 L 167.324219 142.828125 C 165.785156 141.238281 163.875 139.265625 160.164062 139.265625 C 156.394531 139.265625 154.464844 141.269531 152.925781 142.875 L 152.910156 142.894531 C 151.609375 144.242188 150.660156 145.21875 148.6875 145.21875 C 146.710938 145.21875 145.765625 144.242188 144.464844 142.894531 L 144.417969 142.84375 C 142.875 141.253906 140.949219 139.265625 137.207031 139.265625 C 133.4375 139.265625 131.507812 141.269531 129.96875 142.875 L 129.953125 142.894531 C 128.652344 144.242188 127.703125 145.21875 125.730469 145.21875 C 123.753906 145.21875 122.808594 144.242188 121.507812 142.894531 L 121.476562 142.859375 C 119.917969 141.253906 117.992188 139.265625 114.25 139.265625 L 113.289062 139.265625 L 113.289062 143.4375 L 114.25 143.4375 C 116.226562 143.4375 117.171875 144.417969 118.472656 145.765625 L 118.519531 145.816406 C 120.0625 147.402344 121.988281 149.394531 125.730469 149.394531 C 129.503906 149.394531 131.429688 147.386719 132.96875 145.78125 L 132.984375 145.765625 C 134.285156 144.417969 135.234375 143.4375 137.207031 143.4375 C 139.183594 143.4375 140.128906 144.417969 141.429688 145.765625 L 141.460938 145.796875 C 143.019531 147.402344 144.945312 149.394531 148.6875 149.394531 C 152.460938 149.394531 154.386719 147.386719 155.925781 145.78125 L 155.941406 145.765625 C 157.242188 144.417969 158.191406 143.4375 160.164062 143.4375 C 162.15625 143.4375 163.085938 144.417969 164.371094 145.765625 C 165.914062 147.371094 167.839844 149.378906 171.613281 149.378906 C 175.386719 149.378906 177.3125 147.371094 178.851562 145.765625 L 178.867188 145.75 C 180.167969 144.402344 181.117188 143.421875 183.089844 143.421875 C 185.066406 143.421875 186.011719 144.402344 187.3125 145.75 L 187.34375 145.78125 C 188.902344 147.386719 190.828125 149.378906 194.554688 149.378906 L 195.515625 149.378906 L 195.515625 145.203125 Z M 194.554688 145.203125 "/></g><g clip-rule="nonzero" clip-path="url(#5a852738da)"><path style=" stroke:none;fill-rule:nonzero;fill:#0a6682;fill-opacity:1;" d="M 34.550781 145.203125 C 36.527344 145.203125 37.472656 144.226562 38.773438 142.875 L 38.804688 142.84375 C 40.363281 141.238281 42.289062 139.25 46.03125 139.25 C 49.800781 139.25 51.730469 141.253906 53.285156 142.875 C 54.585938 144.226562 55.535156 145.203125 57.507812 145.203125 C 59.484375 145.203125 60.429688 144.226562 61.730469 142.875 L 61.777344 142.828125 C 63.320312 141.238281 65.230469 139.265625 68.9375 139.265625 C 72.710938 139.265625 74.636719 141.269531 76.179688 142.875 L 76.195312 142.894531 C 77.496094 144.242188 78.441406 145.21875 80.417969 145.21875 C 82.390625 145.21875 83.339844 144.242188 84.640625 142.894531 L 84.6875 142.84375 C 86.230469 141.253906 88.15625 139.265625 91.894531 139.265625 C 95.667969 139.265625 97.59375 141.269531 99.136719 142.875 L 99.152344 142.894531 C 100.453125 144.242188 101.398438 145.21875 103.375 145.21875 C 105.351562 145.21875 106.296875 144.242188 107.597656 142.894531 L 107.628906 142.859375 C 109.1875 141.253906 111.113281 139.265625 114.855469 139.265625 L 115.816406 139.265625 L 115.816406 143.4375 L 114.855469 143.4375 C 112.878906 143.4375 111.933594 144.417969 110.632812 145.765625 L 110.582031 145.816406 C 109.042969 147.402344 107.117188 149.394531 103.375 149.394531 C 99.601562 149.394531 97.675781 147.386719 96.132812 145.78125 L 96.117188 145.765625 C 94.816406 144.417969 93.871094 143.4375 91.894531 143.4375 C 89.921875 143.4375 88.972656 144.417969 87.675781 145.765625 L 87.640625 145.796875 C 86.085938 147.402344 84.160156 149.394531 80.417969 149.394531 C 76.644531 149.394531 74.71875 147.386719 73.175781 145.78125 L 73.160156 145.765625 C 71.859375 144.417969 70.914062 143.4375 68.9375 143.4375 C 66.949219 143.4375 66.015625 144.417969 64.734375 145.765625 C 63.191406 147.371094 61.265625 149.378906 57.492188 149.378906 C 53.71875 149.378906 51.792969 147.371094 50.253906 145.765625 L 50.234375 145.75 C 48.9375 144.402344 47.988281 143.421875 46.015625 143.421875 C 44.039062 143.421875 43.09375 144.402344 41.792969 145.75 L 41.757812 145.78125 C 40.203125 147.386719 38.277344 149.378906 34.550781 149.378906 L 33.589844 149.378906 L 33.589844 145.203125 Z M 34.550781 145.203125 "/></g></g></svg>