<svg xmlns="http://www.w3.org/2000/svg" xmlns:xlink="http://www.w3.org/1999/xlink" width="831" zoomAndPan="magnify" viewBox="0 0 623.25 203.249992" height="271" preserveAspectRatio="xMidYMid meet" version="1.2"><defs><clipPath id="c4fae38754"><path d="M 0.773438 0 L 208 0 L 208 201.824219 L 0.773438 201.824219 Z M 0.773438 0 "/></clipPath><clipPath id="8310d8cb3d"><path d="M 104.0625 0 C 47.015625 0 0.773438 45.179688 0.773438 100.914062 C 0.773438 156.644531 47.015625 201.824219 104.0625 201.824219 C 161.105469 201.824219 207.351562 156.644531 207.351562 100.914062 C 207.351562 45.179688 161.105469 0 104.0625 0 Z M 104.0625 0 "/></clipPath><clipPath id="abbaca460e"><path d="M 26 44 L 194 44 L 194 136 L 26 136 Z M 26 44 "/></clipPath><clipPath id="abe78b4905"><path d="M 44.511719 175.558594 L 196.253906 125.902344 L 163.636719 26.246094 L 11.894531 75.90625 Z M 44.511719 175.558594 "/></clipPath><clipPath id="a50ccc63d3"><path d="M 26 44 L 195 44 L 195 136 L 26 136 Z M 26 44 "/></clipPath><clipPath id="924ffb783a"><path d="M 44.511719 175.558594 L 196.253906 125.902344 L 163.636719 26.246094 L 11.894531 75.90625 Z M 44.511719 175.558594 "/></clipPath><clipPath id="c9b299317b"><path d="M 113.480469 139.25 L 196.425781 139.25 L 196.425781 149.710938 L 113.480469 149.710938 Z M 113.480469 139.25 "/></clipPath><clipPath id="c5464daff8"><path d="M 34 139.25 L 116.652344 139.25 L 116.652344 149.710938 L 34 149.710938 Z M 34 139.25 "/></clipPath><clipPath id="ac36c95601"><path d="M 302.050781 139.464844 L 384.925781 139.464844 L 384.925781 149.925781 L 302.050781 149.925781 Z M 302.050781 139.464844 "/></clipPath><clipPath id="dff9466a2b"><path d="M 382.65625 139.464844 L 465.597656 139.464844 L 465.597656 149.925781 L 382.65625 149.925781 Z M 382.65625 139.464844 "/></clipPath></defs><g id="82eda459a0"><g clip-rule="nonzero" clip-path="url(#c4fae38754)"><g clip-rule="nonzero" clip-path="url(#8310d8cb3d)"><path style=" stroke:none;fill-rule:nonzero;fill:#0a6682;fill-opacity:1;" d="M 0.773438 0 L 207.328125 0 L 207.328125 201.824219 L 0.773438 201.824219 Z M 0.773438 0 "/></g></g><g clip-rule="nonzero" clip-path="url(#abbaca460e)"><g clip-rule="nonzero" clip-path="url(#abe78b4905)"><path style=" stroke:none;fill-rule:nonzero;fill:#ffffff;fill-opacity:1;" d="M 89.386719 52.65625 C 86.90625 54.640625 84.785156 56.898438 82.59375 59.007812 C 81.847656 59.726562 81.0625 60.734375 80.308594 61.210938 C 78.386719 62.425781 74.808594 62.574219 72.105469 63.351562 C 65.355469 65.296875 61.195312 67.207031 55.984375 69.839844 C 53.542969 71.070312 51.007812 72.304688 48.972656 73.710938 C 47.234375 74.914062 45.445312 76.910156 43.640625 78.691406 C 40.792969 81.5 38.996094 83.855469 37.011719 86.769531 C 33.695312 91.640625 32.3125 96.855469 30.613281 102.640625 C 29.871094 105.167969 28.832031 108.910156 29.53125 111.386719 C 28.597656 114.875 26.320312 117.5625 26.984375 122.007812 C 28.789062 124.144531 30.664062 121.105469 31.957031 119.777344 C 33.023438 118.671875 34.148438 117.40625 35.1875 116.707031 C 40.578125 113.0625 49.660156 112.773438 54.941406 109.328125 C 56.8125 108.105469 58.226562 106.410156 60.113281 105.273438 C 61.902344 104.191406 63.640625 104.5 65.21875 104.652344 C 66.058594 104.734375 66.972656 104.914062 67.753906 105.042969 C 72.804688 105.886719 77.898438 106.867188 83.984375 105.871094 C 88.867188 105.070312 92.457031 102.371094 95.992188 100.390625 C 96.890625 99.890625 98.152344 99.550781 98.609375 98.484375 C 95.367188 98.785156 92.480469 98.425781 88.917969 98.203125 C 84.242188 97.914062 80.664062 97.851562 78.019531 95.058594 C 79.710938 93.960938 81.972656 93.621094 84.015625 93.332031 C 86.242188 93.015625 88.445312 92.679688 90.574219 92.355469 C 99.566406 90.984375 106.769531 91.269531 114.273438 92.234375 C 117.917969 92.703125 121.507812 93.84375 124.757812 94.722656 C 131.410156 96.53125 137.546875 99.472656 143.546875 102.894531 C 146.261719 104.449219 148.949219 106.625 151.972656 108.546875 C 153.296875 109.386719 154.664062 110.359375 156.140625 111.449219 C 157.546875 112.484375 159.5625 113.652344 160.15625 114.765625 C 160.808594 115.996094 160.59375 117.648438 160.714844 119.183594 C 160.929688 121.855469 161.359375 124.652344 162.390625 127.125 C 163.726562 130.328125 165.5 133.289062 167.839844 135.28125 C 168.304688 134.472656 168.230469 133.335938 168.257812 132.269531 C 169.21875 129.5625 170.734375 126.683594 169.617188 123.074219 C 174.953125 123.964844 183.738281 120.871094 189.035156 119.070312 C 190.628906 118.527344 192.3125 118.164062 193.429688 117.101562 C 190.101562 116.378906 187.375 114.976562 184.257812 113.660156 C 179.539062 111.667969 175.625 109.96875 169.652344 110.03125 C 167.714844 110.050781 165.609375 110.410156 164.3125 109.695312 C 163.316406 109.152344 162.519531 107.488281 161.597656 105.933594 C 159.105469 101.730469 156.222656 97.355469 153.804688 93.925781 C 146.542969 83.609375 137.855469 75.175781 128.136719 69.597656 C 123.214844 66.769531 117.832031 64.914062 111.992188 62.804688 C 110.785156 61.804688 108.742188 60.589844 107.804688 58.769531 C 106.84375 56.894531 106.839844 54.972656 107.617188 53.246094 C 109.621094 50.429688 113.703125 48.855469 114.542969 45.347656 C 111.636719 44.40625 108.558594 44.859375 105.605469 45.515625 C 99.230469 46.933594 93.59375 49.296875 89.386719 52.65625 "/></g></g><g clip-rule="nonzero" clip-path="url(#a50ccc63d3)"><g clip-rule="nonzero" clip-path="url(#924ffb783a)"><path style="fill:none;stroke-width:1;stroke-linecap:butt;stroke-linejoin:miter;stroke:#000000;stroke-opacity:1;stroke-miterlimit:4;" d="M 459.301059 932.514609 C 433.310593 922.639057 409.561115 909.470128 385.631214 897.745121 C 377.482368 893.748259 368.22352 887.424603 360.668037 885.488955 C 341.407483 880.554729 311.292219 889.166644 286.733438 890.070288 C 225.39605 892.291417 185.659609 887.67049 135.233658 879.859584 C 111.616584 876.2257 87.210416 872.817311 66.488985 866.583304 C 48.784796 861.24175 28.503739 849.361847 8.676856 839.334405 C -22.602767 823.529399 -43.925434 808.644405 -68.323244 789.571772 C -109.100873 757.688545 -134.756707 717.580907 -164.589939 673.542228 C -177.621888 654.302783 -196.42081 625.65028 -197.345675 602.865701 C -214.578724 576.060881 -240.793501 559.703818 -247.36112 520.435499 C -238.182803 497.466156 -214.35348 517.892988 -200.007317 525.514653 C -188.147624 531.88558 -175.366097 539.443832 -164.837597 542.468722 C -110.169839 558.304978 -33.969351 535.707504 19.248733 550.167417 C 38.108847 555.307404 54.458512 565.68773 73.214804 570.060893 C 91.011549 574.242642 104.607068 566.852635 117.29736 561.219975 C 124.048256 558.214334 131.150027 554.181679 137.286974 550.942758 C 176.934151 529.915786 216.566545 507.61895 269.809866 499.233878 C 312.531912 492.519958 349.677201 505.358197 384.414904 512.293917 C 393.234237 514.028595 404.634879 513.413175 411.328313 521.134682 C 383.588535 527.53766 360.594703 538.52067 331.617772 550.214839 C 293.576925 565.536705 264.034963 575.925117 249.666408 606.73612 C 266.694708 611.318623 286.399092 607.946998 304.149016 604.750618 C 323.497772 601.278503 342.704993 598.035476 361.26407 594.898318 C 439.659348 581.661243 498.697225 559.4064 558.385402 530.598274 C 587.374646 516.605431 614.083704 497.104846 638.682107 480.745112 C 689.005918 447.178079 731.969264 405.491767 772.491477 360.135815 C 790.809388 339.559711 807.212186 313.828175 827.094609 289.309104 C 835.807987 278.586197 844.517198 266.626325 853.816129 253.37805 C 862.679837 240.784143 876.242671 225.39214 878.147254 214.379688 C 880.219883 202.218797 873.945005 188.895058 870.778167 175.632349 C 865.300341 152.537901 861.266786 127.798562 863.10964 104.131735 C 865.497214 73.473184 872.175912 43.648475 886.190847 20.421361 C 892.248451 25.950062 894.721621 35.727969 897.84704 44.633782 C 913.183802 64.78362 933.593682 84.852141 934.12669 118.329174 C 976.01433 96.121476 1057.372446 97.96308 1106.250639 98.529831 C 1120.960453 98.709966 1135.927937 97.12916 1148.092521 102.998244 C 1122.42072 118.257383 1103.591447 137.58276 1081.284958 157.261022 C 1047.516197 187.044886 1019.633101 212.143511 969.867832 228.079002 C 953.726247 233.254657 935.266239 236.031134 926.440182 245.625937 C 919.644599 252.944209 917.550275 269.155146 914.120715 284.789462 C 904.849818 327.056785 892.802406 371.848267 882.045692 407.397206 C 849.784995 514.295844 800.56772 609.267346 735.026391 683.032678 C 701.84291 720.416588 662.18836 750.879312 619.428827 784.740082 C 612.123829 796.488818 598.461341 812.350963 595.623972 830.265415 C 592.740618 848.705039 597.931605 864.901666 609.079056 877.300104 C 633.37363 895.496453 671.548304 897.503472 688.055961 924.731177 C 666.481838 940.669835 639.690341 945.337597 613.384742 947.950133 C 556.594515 953.578928 503.36554 949.21153 459.301059 932.514609 " transform="matrix(0.108776,-0.0355986,-0.0351036,-0.10725,72.16049,169.018626)"/></g></g><g clip-rule="nonzero" clip-path="url(#c9b299317b)"><path style=" stroke:none;fill-rule:nonzero;fill:#ffffff;fill-opacity:1;" d="M 195.066406 145.203125 C 193.09375 145.203125 192.144531 144.226562 190.847656 142.875 L 190.8125 142.84375 C 189.257812 141.238281 187.328125 139.25 183.589844 139.25 C 179.816406 139.25 177.890625 141.253906 176.332031 142.875 C 175.03125 144.226562 174.085938 145.203125 172.109375 145.203125 C 170.136719 145.203125 169.1875 144.226562 167.886719 142.875 L 167.839844 142.828125 C 166.300781 141.238281 164.390625 139.265625 160.679688 139.265625 C 156.90625 139.265625 154.980469 141.269531 153.441406 142.875 L 153.425781 142.894531 C 152.125 144.242188 151.175781 145.21875 149.203125 145.21875 C 147.226562 145.21875 146.28125 144.242188 144.980469 142.894531 L 144.929688 142.84375 C 143.390625 141.253906 141.464844 139.265625 137.722656 139.265625 C 133.949219 139.265625 132.023438 141.269531 130.484375 142.875 L 130.464844 142.894531 C 129.167969 144.242188 128.21875 145.21875 126.246094 145.21875 C 124.269531 145.21875 123.324219 144.242188 122.023438 142.894531 L 121.988281 142.859375 C 120.433594 141.253906 118.507812 139.265625 114.765625 139.265625 L 113.800781 139.265625 L 113.800781 143.4375 L 114.765625 143.4375 C 116.742188 143.4375 117.6875 144.417969 118.988281 145.765625 L 119.035156 145.816406 C 120.578125 147.402344 122.503906 149.394531 126.246094 149.394531 C 130.015625 149.394531 131.945312 147.386719 133.484375 145.78125 L 133.5 145.765625 C 134.800781 144.417969 135.75 143.4375 137.722656 143.4375 C 139.699219 143.4375 140.644531 144.417969 141.945312 145.765625 L 141.976562 145.796875 C 143.535156 147.402344 145.460938 149.394531 149.203125 149.394531 C 152.972656 149.394531 154.902344 147.386719 156.441406 145.78125 L 156.457031 145.765625 C 157.757812 144.417969 158.707031 143.4375 160.679688 143.4375 C 162.671875 143.4375 163.601562 144.417969 164.886719 145.765625 C 166.425781 147.371094 168.355469 149.378906 172.125 149.378906 C 175.898438 149.378906 177.824219 147.371094 179.367188 145.765625 L 179.382812 145.75 C 180.683594 144.402344 181.628906 143.421875 183.605469 143.421875 C 185.582031 143.421875 186.527344 144.402344 187.828125 145.75 L 187.859375 145.78125 C 189.417969 147.386719 191.34375 149.378906 195.066406 149.378906 L 196.03125 149.378906 L 196.03125 145.203125 Z M 195.066406 145.203125 "/></g><g clip-rule="nonzero" clip-path="url(#c5464daff8)"><path style=" stroke:none;fill-rule:nonzero;fill:#ffffff;fill-opacity:1;" d="M 35.066406 145.203125 C 37.039062 145.203125 37.988281 144.226562 39.289062 142.875 L 39.320312 142.84375 C 40.878906 141.238281 42.804688 139.25 46.542969 139.25 C 50.316406 139.25 52.242188 141.253906 53.800781 142.875 C 55.101562 144.226562 56.046875 145.203125 58.023438 145.203125 C 59.996094 145.203125 60.945312 144.226562 62.246094 142.875 L 62.292969 142.828125 C 63.835938 141.238281 65.746094 139.265625 69.453125 139.265625 C 73.226562 139.265625 75.152344 141.269531 76.695312 142.875 L 76.710938 142.894531 C 78.011719 144.242188 78.957031 145.21875 80.933594 145.21875 C 82.90625 145.21875 83.855469 144.242188 85.15625 142.894531 L 85.203125 142.84375 C 86.742188 141.253906 88.671875 139.265625 92.410156 139.265625 C 96.183594 139.265625 98.109375 141.269531 99.652344 142.875 L 99.667969 142.894531 C 100.96875 144.242188 101.914062 145.21875 103.890625 145.21875 C 105.863281 145.21875 106.8125 144.242188 108.113281 142.894531 L 108.144531 142.859375 C 109.703125 141.253906 111.628906 139.265625 115.367188 139.265625 L 116.332031 139.265625 L 116.332031 143.4375 L 115.367188 143.4375 C 113.394531 143.4375 112.445312 144.417969 111.144531 145.765625 L 111.097656 145.816406 C 109.558594 147.402344 107.628906 149.394531 103.890625 149.394531 C 100.117188 149.394531 98.191406 147.386719 96.648438 145.78125 L 96.632812 145.765625 C 95.332031 144.417969 94.386719 143.4375 92.410156 143.4375 C 90.4375 143.4375 89.488281 144.417969 88.1875 145.765625 L 88.15625 145.796875 C 86.597656 147.402344 84.671875 149.394531 80.933594 149.394531 C 77.160156 149.394531 75.234375 147.386719 73.691406 145.78125 L 73.675781 145.765625 C 72.375 144.417969 71.429688 143.4375 69.453125 143.4375 C 67.464844 143.4375 66.53125 144.417969 65.246094 145.765625 C 63.707031 147.371094 61.78125 149.378906 58.007812 149.378906 C 54.234375 149.378906 52.308594 147.371094 50.765625 145.765625 L 50.75 145.75 C 49.449219 144.402344 48.503906 143.421875 46.527344 143.421875 C 44.554688 143.421875 43.605469 144.402344 42.304688 145.75 L 42.273438 145.78125 C 40.71875 147.386719 38.789062 149.378906 35.066406 149.378906 L 34.101562 149.378906 L 34.101562 145.203125 Z M 35.066406 145.203125 "/></g><g style="fill:#0a6682;fill-opacity:1;"><g transform="translate(221.448117, 136.219557)"><path style="stroke:none" d="M 14.9375 -20.546875 C 13.59375 -20.546875 12.359375 -20.179688 11.234375 -19.453125 C 10.117188 -18.734375 9.222656 -17.773438 8.546875 -16.578125 C 7.878906 -15.390625 7.546875 -14.070312 7.546875 -12.625 C 7.546875 -11.207031 7.878906 -9.894531 8.546875 -8.6875 C 9.222656 -7.476562 10.117188 -6.507812 11.234375 -5.78125 C 12.359375 -5.0625 13.59375 -4.703125 14.9375 -4.703125 C 15.757812 -4.703125 16.625 -4.820312 17.53125 -5.0625 C 18.445312 -5.300781 19.296875 -5.753906 20.078125 -6.421875 C 20.859375 -7.097656 21.476562 -8.070312 21.9375 -9.34375 L 15.46875 -9.34375 L 15.46875 -13.5625 L 27.984375 -13.5625 L 27.984375 -12.703125 C 27.984375 -10.910156 27.644531 -9.222656 26.96875 -7.640625 C 26.300781 -6.054688 25.367188 -4.660156 24.171875 -3.453125 C 22.972656 -2.242188 21.585938 -1.300781 20.015625 -0.625 C 18.453125 0.0390625 16.757812 0.375 14.9375 0.375 C 13.144531 0.375 11.457031 0.03125 9.875 -0.65625 C 8.300781 -1.34375 6.914062 -2.28125 5.71875 -3.46875 C 4.519531 -4.664062 3.578125 -6.054688 2.890625 -7.640625 C 2.210938 -9.222656 1.875 -10.910156 1.875 -12.703125 C 1.875 -14.492188 2.210938 -16.179688 2.890625 -17.765625 C 3.578125 -19.347656 4.519531 -20.734375 5.71875 -21.921875 C 6.914062 -23.117188 8.300781 -24.0625 9.875 -24.75 C 11.457031 -25.4375 13.144531 -25.78125 14.9375 -25.78125 C 16.8125 -25.78125 18.582031 -25.398438 20.25 -24.640625 C 21.914062 -23.878906 23.367188 -22.832031 24.609375 -21.5 C 25.859375 -20.164062 26.769531 -18.613281 27.34375 -16.84375 L 21.1875 -16.84375 C 20.5625 -18.1875 19.675781 -19.140625 18.53125 -19.703125 C 17.382812 -20.265625 16.1875 -20.546875 14.9375 -20.546875 Z M 14.9375 -20.546875 "/></g></g><g style="fill:#0a6682;fill-opacity:1;"><g transform="translate(250.740001, 136.219557)"><path style="stroke:none" d="M 10.71875 -3.890625 C 11.71875 -3.890625 12.488281 -4.097656 13.03125 -4.515625 C 13.582031 -4.941406 13.96875 -5.484375 14.1875 -6.140625 C 14.414062 -6.804688 14.53125 -7.488281 14.53125 -8.1875 C 14.53125 -8.882812 14.410156 -9.554688 14.171875 -10.203125 C 13.941406 -10.847656 13.550781 -11.378906 13 -11.796875 C 12.445312 -12.222656 11.6875 -12.4375 10.71875 -12.4375 C 9.75 -12.4375 8.984375 -12.222656 8.421875 -11.796875 C 7.859375 -11.378906 7.457031 -10.847656 7.21875 -10.203125 C 6.988281 -9.554688 6.875 -8.882812 6.875 -8.1875 C 6.875 -7.488281 6.984375 -6.804688 7.203125 -6.140625 C 7.429688 -5.484375 7.828125 -4.941406 8.390625 -4.515625 C 8.953125 -4.097656 9.726562 -3.890625 10.71875 -3.890625 Z M 10.71875 -16.8125 C 12.4375 -16.8125 14.003906 -16.445312 15.421875 -15.71875 C 16.847656 -15 17.984375 -14 18.828125 -12.71875 C 19.671875 -11.4375 20.09375 -9.9375 20.09375 -8.21875 C 20.09375 -6.476562 19.675781 -4.960938 18.84375 -3.671875 C 18.007812 -2.390625 16.882812 -1.398438 15.46875 -0.703125 C 14.050781 -0.00390625 12.46875 0.34375 10.71875 0.34375 C 8.976562 0.34375 7.390625 -0.00390625 5.953125 -0.703125 C 4.523438 -1.398438 3.394531 -2.390625 2.5625 -3.671875 C 1.726562 -4.960938 1.3125 -6.476562 1.3125 -8.21875 C 1.3125 -9.9375 1.734375 -11.4375 2.578125 -12.71875 C 3.421875 -14 4.554688 -15 5.984375 -15.71875 C 7.421875 -16.445312 9 -16.8125 10.71875 -16.8125 Z M 10.71875 -16.8125 "/></g></g><g style="fill:#0a6682;fill-opacity:1;"><g transform="translate(272.148486, 136.219557)"><path style="stroke:none" d="M 7.84375 0 L 2.234375 0 L 2.234375 -28.015625 L 7.84375 -28.015625 Z M 7.84375 0 "/></g></g><g style="fill:#0a6682;fill-opacity:1;"><g transform="translate(282.236249, 136.219557)"><path style="stroke:none" d="M 8.78125 -28.015625 L 12.921875 -28.015625 L 12.921875 -23.65625 L 10.53125 -23.65625 C 9.957031 -23.65625 9.570312 -23.476562 9.375 -23.125 C 9.175781 -22.78125 9.078125 -22.207031 9.078125 -21.40625 L 9.078125 -16.46875 L 12.921875 -16.46875 L 12.921875 -12.140625 L 9.078125 -12.140625 L 9.078125 0 L 3.46875 0 L 3.46875 -12.140625 L 1.125 -12.140625 L 1.125 -16.46875 L 3.46875 -16.46875 L 3.46875 -22.078125 C 3.46875 -24.117188 3.976562 -25.617188 5 -26.578125 C 6.019531 -27.535156 7.28125 -28.015625 8.78125 -28.015625 Z M 8.78125 -28.015625 "/></g></g><g style="fill:#0a6682;fill-opacity:1;"><g transform="translate(295.798687, 136.219557)"><path style="stroke:none" d="M 1.9375 -22.109375 C 1.9375 -23.035156 2.253906 -23.816406 2.890625 -24.453125 C 3.523438 -25.085938 4.304688 -25.40625 5.234375 -25.40625 C 6.128906 -25.40625 6.898438 -25.085938 7.546875 -24.453125 C 8.191406 -23.816406 8.515625 -23.035156 8.515625 -22.109375 C 8.515625 -21.210938 8.191406 -20.441406 7.546875 -19.796875 C 6.898438 -19.148438 6.128906 -18.828125 5.234375 -18.828125 C 4.304688 -18.828125 3.523438 -19.148438 2.890625 -19.796875 C 2.253906 -20.441406 1.9375 -21.210938 1.9375 -22.109375 Z M 8.03125 0 L 2.421875 0 L 2.421875 -16.46875 L 8.03125 -16.46875 Z M 8.03125 0 "/></g></g><g style="fill:#0a6682;fill-opacity:1;"><g transform="translate(306.260071, 136.219557)"><path style="stroke:none" d="M 19.09375 -9.34375 L 19.09375 0 L 13.484375 0 L 13.484375 -9.34375 C 13.484375 -10.3125 13.285156 -11.050781 12.890625 -11.5625 C 12.492188 -12.070312 11.859375 -12.328125 10.984375 -12.328125 C 10.109375 -12.328125 9.363281 -11.921875 8.75 -11.109375 C 8.144531 -10.304688 7.84375 -9.34375 7.84375 -8.21875 L 7.84375 0 L 2.234375 0 L 2.234375 -16.46875 L 7.84375 -16.46875 L 7.84375 -14.453125 C 8.414062 -15.179688 9.128906 -15.757812 9.984375 -16.1875 C 10.847656 -16.625 11.816406 -16.84375 12.890625 -16.84375 C 15.109375 -16.84375 16.695312 -16.148438 17.65625 -14.765625 C 18.613281 -13.390625 19.09375 -11.582031 19.09375 -9.34375 Z M 19.09375 -9.34375 "/></g></g><g style="fill:#0a6682;fill-opacity:1;"><g transform="translate(327.033395, 136.219557)"><path style="stroke:none" d="M 19.09375 -9.34375 L 19.09375 0 L 13.484375 0 L 13.484375 -9.34375 C 13.484375 -10.3125 13.285156 -11.050781 12.890625 -11.5625 C 12.492188 -12.070312 11.859375 -12.328125 10.984375 -12.328125 C 10.109375 -12.328125 9.363281 -11.921875 8.75 -11.109375 C 8.144531 -10.304688 7.84375 -9.34375 7.84375 -8.21875 L 7.84375 0 L 2.234375 0 L 2.234375 -28.015625 L 7.84375 -28.015625 L 7.84375 -14.453125 C 8.414062 -15.179688 9.128906 -15.757812 9.984375 -16.1875 C 10.847656 -16.625 11.816406 -16.84375 12.890625 -16.84375 C 15.109375 -16.84375 16.695312 -16.148438 17.65625 -14.765625 C 18.613281 -13.390625 19.09375 -11.582031 19.09375 -9.34375 Z M 19.09375 -9.34375 "/></g></g><g style="fill:#0a6682;fill-opacity:1;"><g transform="translate(347.806719, 136.219557)"><path style="stroke:none" d="M 10.71875 -3.890625 C 11.71875 -3.890625 12.488281 -4.097656 13.03125 -4.515625 C 13.582031 -4.941406 13.96875 -5.484375 14.1875 -6.140625 C 14.414062 -6.804688 14.53125 -7.488281 14.53125 -8.1875 C 14.53125 -8.882812 14.410156 -9.554688 14.171875 -10.203125 C 13.941406 -10.847656 13.550781 -11.378906 13 -11.796875 C 12.445312 -12.222656 11.6875 -12.4375 10.71875 -12.4375 C 9.75 -12.4375 8.984375 -12.222656 8.421875 -11.796875 C 7.859375 -11.378906 7.457031 -10.847656 7.21875 -10.203125 C 6.988281 -9.554688 6.875 -8.882812 6.875 -8.1875 C 6.875 -7.488281 6.984375 -6.804688 7.203125 -6.140625 C 7.429688 -5.484375 7.828125 -4.941406 8.390625 -4.515625 C 8.953125 -4.097656 9.726562 -3.890625 10.71875 -3.890625 Z M 10.71875 -16.8125 C 12.4375 -16.8125 14.003906 -16.445312 15.421875 -15.71875 C 16.847656 -15 17.984375 -14 18.828125 -12.71875 C 19.671875 -11.4375 20.09375 -9.9375 20.09375 -8.21875 C 20.09375 -6.476562 19.675781 -4.960938 18.84375 -3.671875 C 18.007812 -2.390625 16.882812 -1.398438 15.46875 -0.703125 C 14.050781 -0.00390625 12.46875 0.34375 10.71875 0.34375 C 8.976562 0.34375 7.390625 -0.00390625 5.953125 -0.703125 C 4.523438 -1.398438 3.394531 -2.390625 2.5625 -3.671875 C 1.726562 -4.960938 1.3125 -6.476562 1.3125 -8.21875 C 1.3125 -9.9375 1.734375 -11.4375 2.578125 -12.71875 C 3.421875 -14 4.554688 -15 5.984375 -15.71875 C 7.421875 -16.445312 9 -16.8125 10.71875 -16.8125 Z M 10.71875 -16.8125 "/></g></g><g style="fill:#0a6682;fill-opacity:1;"><g transform="translate(369.215203, 136.219557)"><path style="stroke:none" d=""/></g></g><g style="fill:#0a6682;fill-opacity:1;"><g transform="translate(378.555724, 136.219557)"><path style="stroke:none" d="M 16.0625 -9.71875 L 12.859375 -18.75 L 9.640625 -9.71875 Z M 25.546875 0 L 19.53125 0 L 17.703125 -5.125 L 8.03125 -5.125 L 6.203125 0 L 0.1875 0 L 10.5 -25.40625 L 15.25 -25.40625 Z M 25.546875 0 "/></g></g><g style="fill:#0a6682;fill-opacity:1;"><g transform="translate(404.298206, 136.219557)"><path style="stroke:none" d="M 17.515625 -4.453125 L 17.515625 0 L 0.1875 0 L 8.859375 -12.21875 L 0.9375 -12.21875 L 0.9375 -16.46875 L 17.453125 -16.46875 L 9.53125 -4.453125 Z M 17.515625 -4.453125 "/></g></g><g style="fill:#0a6682;fill-opacity:1;"><g transform="translate(422.381463, 136.219557)"><path style="stroke:none" d="M 1.875 -7.09375 L 1.875 -16.46875 L 7.46875 -16.46875 L 7.46875 -7.09375 C 7.46875 -6.144531 7.664062 -5.410156 8.0625 -4.890625 C 8.46875 -4.367188 9.101562 -4.109375 9.96875 -4.109375 C 10.84375 -4.109375 11.582031 -4.519531 12.1875 -5.34375 C 12.800781 -6.164062 13.109375 -7.125 13.109375 -8.21875 L 13.109375 -16.46875 L 18.71875 -16.46875 L 18.71875 0 L 13.109375 0 L 13.109375 -2.015625 C 12.566406 -1.316406 11.863281 -0.742188 11 -0.296875 C 10.144531 0.148438 9.164062 0.375 8.0625 0.375 C 5.875 0.375 4.296875 -0.3125 3.328125 -1.6875 C 2.359375 -3.070312 1.875 -4.875 1.875 -7.09375 Z M 1.875 -7.09375 "/></g></g><g style="fill:#0a6682;fill-opacity:1;"><g transform="translate(443.341586, 136.219557)"><path style="stroke:none" d="M 7.84375 0 L 2.234375 0 L 2.234375 -28.015625 L 7.84375 -28.015625 Z M 7.84375 0 "/></g></g><g clip-rule="nonzero" clip-path="url(#ac36c95601)"><path style=" stroke:none;fill-rule:nonzero;fill:#0a6682;fill-opacity:1;" d="M 303.335938 145.417969 C 305.3125 145.417969 306.257812 144.441406 307.558594 143.09375 L 307.589844 143.058594 C 309.148438 141.453125 311.074219 139.464844 314.816406 139.464844 C 318.589844 139.464844 320.515625 141.46875 322.074219 143.09375 C 323.371094 144.441406 324.320312 145.417969 326.292969 145.417969 C 328.269531 145.417969 329.214844 144.441406 330.515625 143.09375 L 330.566406 143.042969 C 332.105469 141.453125 334.015625 139.480469 337.726562 139.480469 C 341.496094 139.480469 343.425781 141.488281 344.964844 143.09375 L 344.980469 143.109375 C 346.28125 144.457031 347.230469 145.4375 349.203125 145.4375 C 351.179688 145.4375 352.125 144.457031 353.425781 143.109375 L 353.472656 143.058594 C 355.015625 141.46875 356.941406 139.480469 360.683594 139.480469 C 364.457031 139.480469 366.382812 141.488281 367.921875 143.09375 L 367.9375 143.109375 C 369.238281 144.457031 370.1875 145.4375 372.160156 145.4375 C 374.136719 145.4375 375.082031 144.457031 376.382812 143.109375 L 376.414062 143.074219 C 377.972656 141.46875 379.898438 139.480469 383.640625 139.480469 L 384.601562 139.480469 L 384.601562 143.652344 L 383.640625 143.652344 C 381.664062 143.652344 380.71875 144.632812 379.417969 145.980469 L 379.371094 146.03125 C 377.828125 147.621094 375.902344 149.609375 372.160156 149.609375 C 368.386719 149.609375 366.460938 147.601562 364.921875 145.996094 L 364.90625 145.980469 C 363.605469 144.632812 362.65625 143.652344 360.683594 143.652344 C 358.707031 143.652344 357.761719 144.632812 356.460938 145.980469 L 356.429688 146.015625 C 354.871094 147.621094 352.945312 149.609375 349.203125 149.609375 C 345.429688 149.609375 343.503906 147.601562 341.964844 145.996094 L 341.949219 145.980469 C 340.648438 144.632812 339.699219 143.652344 337.726562 143.652344 C 335.734375 143.652344 334.804688 144.632812 333.519531 145.980469 C 331.976562 147.585938 330.050781 149.59375 326.277344 149.59375 C 322.507812 149.59375 320.578125 147.585938 319.039062 145.980469 L 319.023438 145.964844 C 317.722656 144.617188 316.773438 143.636719 314.800781 143.636719 C 312.824219 143.636719 311.878906 144.617188 310.578125 145.964844 L 310.546875 145.996094 C 308.988281 147.601562 307.0625 149.59375 303.335938 149.59375 L 302.375 149.59375 L 302.375 145.417969 Z M 303.335938 145.417969 "/></g><g clip-rule="nonzero" clip-path="url(#dff9466a2b)"><path style=" stroke:none;fill-rule:nonzero;fill:#0a6682;fill-opacity:1;" d="M 464.242188 145.417969 C 462.269531 145.417969 461.320312 144.441406 460.019531 143.09375 L 459.988281 143.058594 C 458.433594 141.453125 456.503906 139.464844 452.765625 139.464844 C 448.992188 139.464844 447.066406 141.46875 445.507812 143.09375 C 444.207031 144.441406 443.261719 145.417969 441.285156 145.417969 C 439.3125 145.417969 438.363281 144.441406 437.0625 143.09375 L 437.015625 143.042969 C 435.472656 141.453125 433.5625 139.480469 429.855469 139.480469 C 426.082031 139.480469 424.15625 141.488281 422.613281 143.09375 L 422.597656 143.109375 C 421.296875 144.457031 420.351562 145.4375 418.375 145.4375 C 416.402344 145.4375 415.453125 144.457031 414.15625 143.109375 L 414.105469 143.058594 C 412.566406 141.46875 410.640625 139.480469 406.898438 139.480469 C 403.125 139.480469 401.199219 141.488281 399.65625 143.09375 L 399.640625 143.109375 C 398.339844 144.457031 397.394531 145.4375 395.417969 145.4375 C 393.445312 145.4375 392.496094 144.457031 391.199219 143.109375 L 391.164062 143.074219 C 389.609375 141.46875 387.679688 139.480469 383.941406 139.480469 L 382.976562 139.480469 L 382.976562 143.652344 L 383.941406 143.652344 C 385.914062 143.652344 386.863281 144.632812 388.164062 145.980469 L 388.210938 146.03125 C 389.753906 147.621094 391.679688 149.609375 395.417969 149.609375 C 399.191406 149.609375 401.117188 147.601562 402.660156 145.996094 L 402.675781 145.980469 C 403.976562 144.632812 404.921875 143.652344 406.898438 143.652344 C 408.871094 143.652344 409.820312 144.632812 411.121094 145.980469 L 411.152344 146.015625 C 412.710938 147.621094 414.636719 149.609375 418.375 149.609375 C 422.148438 149.609375 424.074219 147.601562 425.617188 145.996094 L 425.632812 145.980469 C 426.933594 144.632812 427.882812 143.652344 429.855469 143.652344 C 431.847656 143.652344 432.777344 144.632812 434.0625 145.980469 C 435.601562 147.585938 437.53125 149.59375 441.300781 149.59375 C 445.074219 149.59375 447 147.585938 448.542969 145.980469 L 448.558594 145.964844 C 449.859375 144.617188 450.804688 143.636719 452.78125 143.636719 C 454.753906 143.636719 455.703125 144.617188 457.003906 145.964844 L 457.035156 145.996094 C 458.59375 147.601562 460.519531 149.59375 464.242188 149.59375 L 465.207031 149.59375 L 465.207031 145.417969 Z M 464.242188 145.417969 "/></g><g style="fill:#0a6682;fill-opacity:1;"><g transform="translate(221.448117, 102.66837)"><path style="stroke:none" d="M 11.71875 0 L 3.34375 0 L 3.34375 -37.9375 L 11.71875 -37.9375 Z M 11.71875 0 "/></g></g><g style="fill:#0a6682;fill-opacity:1;"><g transform="translate(236.510422, 102.66837)"><path style="stroke:none" d="M 33.140625 0 L 24.78125 0 L 11.71875 -23.65625 L 11.71875 0 L 3.34375 0 L 3.34375 -37.9375 L 11.71875 -37.9375 L 24.78125 -14.28125 L 24.78125 -37.9375 L 33.140625 -37.9375 Z M 33.140625 0 "/></g></g><g style="fill:#0a6682;fill-opacity:1;"><g transform="translate(272.994675, 102.66837)"><path style="stroke:none" d="M 18.078125 -5.921875 C 18.972656 -5.921875 19.941406 -6.054688 20.984375 -6.328125 C 22.023438 -6.609375 22.925781 -7.070312 23.6875 -7.71875 C 24.445312 -8.375 24.828125 -9.257812 24.828125 -10.375 C 24.828125 -11.414062 24.425781 -12.253906 23.625 -12.890625 C 22.832031 -13.523438 21.785156 -14.046875 20.484375 -14.453125 C 19.179688 -14.859375 17.753906 -15.238281 16.203125 -15.59375 C 14.660156 -15.945312 13.109375 -16.375 11.546875 -16.875 C 9.984375 -17.375 8.550781 -18.035156 7.25 -18.859375 C 5.945312 -19.679688 4.894531 -20.742188 4.09375 -22.046875 C 3.300781 -23.347656 2.90625 -25 2.90625 -27 C 2.90625 -28.976562 3.3125 -30.679688 4.125 -32.109375 C 4.945312 -33.546875 6.035156 -34.738281 7.390625 -35.6875 C 8.742188 -36.632812 10.265625 -37.335938 11.953125 -37.796875 C 13.648438 -38.265625 15.359375 -38.5 17.078125 -38.5 C 19.679688 -38.5 22.113281 -38.085938 24.375 -37.265625 C 26.644531 -36.453125 28.492188 -35.160156 29.921875 -33.390625 C 31.359375 -31.628906 32.113281 -29.296875 32.1875 -26.390625 L 24.109375 -26.390625 C 23.878906 -28.359375 23.1875 -29.722656 22.03125 -30.484375 C 20.882812 -31.253906 19.269531 -31.640625 17.1875 -31.640625 C 16.40625 -31.640625 15.578125 -31.507812 14.703125 -31.25 C 13.828125 -30.988281 13.082031 -30.566406 12.46875 -29.984375 C 11.851562 -29.410156 11.546875 -28.640625 11.546875 -27.671875 C 11.546875 -26.703125 11.945312 -25.9375 12.75 -25.375 C 13.550781 -24.820312 14.601562 -24.359375 15.90625 -23.984375 C 17.207031 -23.617188 18.640625 -23.269531 20.203125 -22.9375 C 21.765625 -22.601562 23.316406 -22.191406 24.859375 -21.703125 C 26.398438 -21.222656 27.820312 -20.5625 29.125 -19.71875 C 30.425781 -18.882812 31.476562 -17.796875 32.28125 -16.453125 C 33.082031 -15.117188 33.484375 -13.410156 33.484375 -11.328125 C 33.484375 -9.097656 33.035156 -7.203125 32.140625 -5.640625 C 31.242188 -4.078125 30.039062 -2.820312 28.53125 -1.875 C 27.03125 -0.925781 25.335938 -0.226562 23.453125 0.21875 C 21.578125 0.664062 19.675781 0.890625 17.75 0.890625 C 14.957031 0.890625 12.34375 0.414062 9.90625 -0.53125 C 7.46875 -1.476562 5.492188 -2.9375 3.984375 -4.90625 C 2.484375 -6.882812 1.710938 -9.414062 1.671875 -12.5 L 10.15625 -12.5 C 10.269531 -10.226562 11.109375 -8.5625 12.671875 -7.5 C 14.234375 -6.445312 16.035156 -5.921875 18.078125 -5.921875 Z M 18.078125 -5.921875 "/></g></g><g style="fill:#0a6682;fill-opacity:1;"><g transform="translate(308.140059, 102.66837)"><path style="stroke:none" d="M 19.46875 -30.359375 L 19.46875 0 L 11.109375 0 L 11.109375 -30.359375 L 0.28125 -30.359375 L 0.28125 -37.9375 L 30.296875 -37.9375 L 30.296875 -30.359375 Z M 19.46875 -30.359375 "/></g></g><g style="fill:#0a6682;fill-opacity:1;"><g transform="translate(338.710964, 102.66837)"><path style="stroke:none" d="M 11.71875 0 L 3.34375 0 L 3.34375 -37.9375 L 11.71875 -37.9375 Z M 11.71875 0 "/></g></g><g style="fill:#0a6682;fill-opacity:1;"><g transform="translate(353.773268, 102.66837)"><path style="stroke:none" d="M 19.46875 -30.359375 L 19.46875 0 L 11.109375 0 L 11.109375 -30.359375 L 0.28125 -30.359375 L 0.28125 -37.9375 L 30.296875 -37.9375 L 30.296875 -30.359375 Z M 19.46875 -30.359375 "/></g></g><g style="fill:#0a6682;fill-opacity:1;"><g transform="translate(384.344174, 102.66837)"><path style="stroke:none" d="M 25.5 -37.9375 L 33.875 -37.9375 L 33.875 -14.78125 C 33.875 -9.726562 32.492188 -5.90625 29.734375 -3.3125 C 26.984375 -0.726562 23.132812 0.5625 18.1875 0.5625 C 13.238281 0.5625 9.390625 -0.726562 6.640625 -3.3125 C 3.890625 -5.90625 2.515625 -9.726562 2.515625 -14.78125 L 2.515625 -37.9375 L 10.875 -37.9375 L 10.875 -16.015625 C 10.875 -13.410156 11.382812 -11.390625 12.40625 -9.953125 C 13.4375 -8.523438 15.363281 -7.8125 18.1875 -7.8125 C 21.050781 -7.8125 22.984375 -8.523438 23.984375 -9.953125 C 24.992188 -11.390625 25.5 -13.410156 25.5 -16.015625 Z M 25.5 -37.9375 "/></g></g><g style="fill:#0a6682;fill-opacity:1;"><g transform="translate(420.716859, 102.66837)"><path style="stroke:none" d="M 11.71875 0 L 3.34375 0 L 3.34375 -37.9375 L 11.71875 -37.9375 Z M 11.71875 0 "/></g></g><g style="fill:#0a6682;fill-opacity:1;"><g transform="translate(435.779175, 102.66837)"><path style="stroke:none" d="M 30.75 -12.890625 L 40.0625 -12.890625 C 39.238281 -10.398438 37.972656 -8.164062 36.265625 -6.1875 C 34.554688 -4.21875 32.53125 -2.644531 30.1875 -1.46875 C 27.84375 -0.300781 25.296875 0.351562 22.546875 0.5 L 20.921875 4.015625 C 21.671875 3.828125 22.378906 3.8125 23.046875 3.96875 C 23.828125 4.144531 24.457031 4.578125 24.9375 5.265625 C 25.425781 5.960938 25.71875 6.785156 25.8125 7.734375 C 25.90625 8.679688 25.765625 9.617188 25.390625 10.546875 C 24.828125 11.847656 23.90625 12.757812 22.625 13.28125 C 21.34375 13.800781 19.9375 14.003906 18.40625 13.890625 C 16.882812 13.773438 15.453125 13.457031 14.109375 12.9375 L 13.671875 12.78125 L 15.171875 9.59375 L 15.5625 9.765625 C 16.3125 10.023438 17.078125 10.210938 17.859375 10.328125 C 18.929688 10.503906 19.800781 10.453125 20.46875 10.171875 C 21.144531 9.898438 21.59375 9.519531 21.8125 9.03125 C 22.039062 8.550781 22.050781 8.097656 21.84375 7.671875 C 21.632812 7.242188 21.21875 6.957031 20.59375 6.8125 C 20.03125 6.738281 19.40625 6.753906 18.71875 6.859375 C 18.03125 6.972656 17.390625 7.066406 16.796875 7.140625 L 16.015625 7.3125 L 19.078125 0.390625 C 16.660156 0.0859375 14.421875 -0.609375 12.359375 -1.703125 C 10.296875 -2.796875 8.484375 -4.21875 6.921875 -5.96875 C 5.359375 -7.71875 4.140625 -9.695312 3.265625 -11.90625 C 2.390625 -14.125 1.953125 -16.476562 1.953125 -18.96875 C 1.953125 -21.644531 2.453125 -24.164062 3.453125 -26.53125 C 4.460938 -28.894531 5.867188 -30.976562 7.671875 -32.78125 C 9.472656 -34.582031 11.554688 -35.984375 13.921875 -36.984375 C 16.285156 -37.992188 18.804688 -38.5 21.484375 -38.5 C 24.378906 -38.5 27.0625 -37.921875 29.53125 -36.765625 C 32.007812 -35.617188 34.160156 -34.046875 35.984375 -32.046875 C 37.804688 -30.054688 39.144531 -27.765625 40 -25.171875 L 30.6875 -25.171875 C 29.90625 -26.878906 28.660156 -28.222656 26.953125 -29.203125 C 25.242188 -30.191406 23.421875 -30.6875 21.484375 -30.6875 C 19.429688 -30.6875 17.566406 -30.15625 15.890625 -29.09375 C 14.222656 -28.039062 12.894531 -26.628906 11.90625 -24.859375 C 10.925781 -23.085938 10.4375 -21.125 10.4375 -18.96875 C 10.4375 -16.8125 10.925781 -14.847656 11.90625 -13.078125 C 12.894531 -11.316406 14.222656 -9.90625 15.890625 -8.84375 C 17.566406 -7.78125 19.429688 -7.25 21.484375 -7.25 C 23.453125 -7.25 25.289062 -7.769531 27 -8.8125 C 28.71875 -9.851562 29.96875 -11.210938 30.75 -12.890625 Z M 30.75 -12.890625 "/></g></g><g style="fill:#0a6682;fill-opacity:1;"><g transform="translate(477.228403, 102.66837)"><path style="stroke:none" d="M 24.890625 -48.265625 L 29.90625 -48.265625 C 29.90625 -45.878906 29.316406 -43.953125 28.140625 -42.484375 C 26.972656 -41.015625 25.332031 -40.28125 23.21875 -40.28125 C 22.25 -40.28125 21.4375 -40.425781 20.78125 -40.71875 C 20.132812 -41.019531 19.539062 -41.375 19 -41.78125 C 18.457031 -42.195312 17.90625 -42.550781 17.34375 -42.84375 C 16.789062 -43.144531 16.125 -43.296875 15.34375 -43.296875 C 14.488281 -43.296875 13.882812 -42.960938 13.53125 -42.296875 C 13.175781 -41.628906 13 -41.070312 13 -40.625 L 8.265625 -40.625 C 8.265625 -41.882812 8.515625 -43.128906 9.015625 -44.359375 C 9.515625 -45.585938 10.265625 -46.609375 11.265625 -47.421875 C 12.273438 -48.242188 13.523438 -48.65625 15.015625 -48.65625 C 16.273438 -48.65625 17.347656 -48.421875 18.234375 -47.953125 C 19.128906 -47.492188 19.921875 -47.03125 20.609375 -46.5625 C 21.304688 -46.09375 21.96875 -45.859375 22.59375 -45.859375 C 23.039062 -45.859375 23.535156 -45.96875 24.078125 -46.1875 C 24.617188 -46.414062 24.890625 -47.109375 24.890625 -48.265625 Z M 24 -14.5 L 19.1875 -28.015625 L 14.390625 -14.5 Z M 38.171875 0 L 29.1875 0 L 26.453125 -7.640625 L 12 -7.640625 L 9.265625 0 L 0.28125 0 L 15.671875 -37.9375 L 22.765625 -37.9375 Z M 38.171875 0 "/></g></g><g style="fill:#0a6682;fill-opacity:1;"><g transform="translate(515.665172, 102.66837)"><path style="stroke:none" d="M 32.640625 -19.03125 C 32.640625 -21 32.117188 -22.828125 31.078125 -24.515625 C 30.035156 -26.210938 28.664062 -27.582031 26.96875 -28.625 C 25.28125 -29.664062 23.453125 -30.1875 21.484375 -30.1875 C 19.546875 -30.1875 17.722656 -29.664062 16.015625 -28.625 C 14.304688 -27.582031 12.929688 -26.210938 11.890625 -24.515625 C 10.847656 -22.828125 10.328125 -21 10.328125 -19.03125 C 10.328125 -17.09375 10.847656 -15.265625 11.890625 -13.546875 C 12.929688 -11.835938 14.304688 -10.453125 16.015625 -9.390625 C 17.722656 -8.335938 19.546875 -7.8125 21.484375 -7.8125 C 23.453125 -7.8125 25.28125 -8.335938 26.96875 -9.390625 C 28.664062 -10.453125 30.035156 -11.835938 31.078125 -13.546875 C 32.117188 -15.265625 32.640625 -17.09375 32.640625 -19.03125 Z M 41.015625 -18.96875 C 41.015625 -16.363281 40.492188 -13.878906 39.453125 -11.515625 C 38.410156 -9.160156 36.984375 -7.078125 35.171875 -5.265625 C 33.367188 -3.460938 31.296875 -2.039062 28.953125 -1 C 26.609375 0.0390625 24.117188 0.5625 21.484375 0.5625 C 18.878906 0.5625 16.394531 0.0390625 14.03125 -1 C 11.664062 -2.039062 9.582031 -3.460938 7.78125 -5.265625 C 5.976562 -7.078125 4.554688 -9.160156 3.515625 -11.515625 C 2.472656 -13.878906 1.953125 -16.363281 1.953125 -18.96875 C 1.953125 -21.613281 2.472656 -24.109375 3.515625 -26.453125 C 4.554688 -28.796875 5.976562 -30.867188 7.78125 -32.671875 C 9.582031 -34.472656 11.664062 -35.894531 14.03125 -36.9375 C 16.394531 -37.976562 18.878906 -38.5 21.484375 -38.5 C 24.117188 -38.5 26.609375 -37.976562 28.953125 -36.9375 C 31.296875 -35.894531 33.367188 -34.472656 35.171875 -32.671875 C 36.984375 -30.867188 38.410156 -28.796875 39.453125 -26.453125 C 40.492188 -24.109375 41.015625 -21.613281 41.015625 -18.96875 Z M 41.015625 -18.96875 "/></g></g></g></svg>